<?xml version="1.0" encoding="utf-8"?>
<!-- Generator: Adobe Illustrator 21.0.0, SVG Export Plug-In . SVG Version: 6.00 Build 0)  -->
<svg version="1.1" id="Layer_1" xmlns="http://www.w3.org/2000/svg" xmlns:xlink="http://www.w3.org/1999/xlink" x="0px" y="0px"
	 viewBox="0 0 180 180" style="enable-background:new 0 0 180 180;" xml:space="preserve">
<style type="text/css">
	.st0{fill:#F9121B;}
</style>
<g>
	<path class="st0" d="M144.4,120.2l1.8-2.6l-17.8-41l0,0l-8.7-20.1l-9.4,4.1l-11.6-2.8l-8.9-12.3c1.9-2.3,1.7-5.7-0.6-7.8
		c-2.3-2.1-5.9-1.9-8,0.4L56.5,65.4c-0.9,1-1.6,2.2-2.1,3.5c-2,5.5,0.9,11.5,6.3,13.5l28,10.1l7.4,34.9c0.6,2.6,2.9,4.5,5.5,4.5
		c0.4,0,0.8,0,1.2-0.1l0,0c3.1-0.7,5-3.7,4.3-6.7L98.4,84L65.7,72.1l16.3-18l10,13.7l22.6,5.5l18.6,42.9
		c-5.4,6.5-21.8,23.8-41.3,18.7c-4.1-1.1-9-2.1-14.5-3c0.9-7.6,2.4-19.9,4.4-32.4l0.9-5.5l-5.5-1c-25-4.4-44.4-1.3-57.6,9.3
		c-9.1,7.4-14.9,18.1-16,29.8L3.4,138l5.9,0.1c1.8,0,3.5,0.1,5.3,0.2c-1,1.8-1.8,3.7-2.3,5.8c-0.4,1.6-0.6,3.3-0.6,4.9
		c0,11.9,9.6,21.5,21.5,21.5c9.9,0,18.6-6.9,20.9-16.5c1.1-4.7,0.6-9.4-1.2-13.5c6,0.6,12,1.2,17.9,1.9c6.2,0.8,12.3,2,18.4,3.5
		c3.3,0.9,6.8,1.3,10.2,1.3C125.4,147.2,143.5,121.4,144.4,120.2z M46.6,152.2c-1.8,7.5-9.3,12.1-16.7,10.3
		c-7.5-1.8-12.1-9.3-10.3-16.7c0-0.1,0-0.1,0-0.2c0.7-2.9,2.3-5.3,4.3-7.1c6.5,0.3,13,0.7,19.5,1.2C46.4,143,47.7,147.6,46.6,152.2z
		 M66.2,130.4c-10.3-1.2-21-2.1-30.2-2.6c-1.1-0.1-2.1-0.2-3.2-0.2c-6.7-0.4-12.5-0.6-16.7-0.7l0,0c1.9-6.3,5.6-11.8,10.7-15.8
		c9.6-7.6,24-10.2,42.9-7.7C68.2,113.9,67,123.8,66.2,130.4z"/>
	<path class="st0" d="M160.1,128.8c-11.5-2.7-23.1,4.4-25.9,15.9c-0.4,1.6-0.6,3.3-0.6,5c0,11.9,9.6,21.5,21.5,21.5
		c10,0,18.6-6.8,20.9-16.5C178.8,143.2,171.6,131.6,160.1,128.8z M168.7,152.9c-1.8,7.5-9.3,12.1-16.7,10.3
		c-7.5-1.8-12.1-9.3-10.3-16.7c1.5-6.3,7.1-10.7,13.5-10.7l0,0c1.1,0,2.2,0.1,3.2,0.4C165.8,138,170.4,145.5,168.7,152.9z"/>
	<path class="st0" d="M107.6,36.1c0.8-3.9,2.5-7.5,4.9-10.6c1-1.3,2.1-2.6,3.3-3.7c0-0.5-0.1-1-0.2-1.6c-0.2-1.1-0.6-2.1-1-3.1
		c-3.3-7.2-11.8-10.3-19-7s-10.3,11.8-7,19C91.9,36.3,100.4,39.4,107.6,36.1z"/>
	<path class="st0" d="M36.1,72.1L36.1,72.1c2.6,2.2,6.5,2,8.7-0.6l28.4-32.4l0,0c2.2-2.6,2-6.4-0.6-8.7L56.1,15.9l0,0
		c-2.6-2.2-6.4-2-8.7,0.6L19,48.8c0,0,0,0-0.1,0.1c-2.2,2.5-1.9,6.4,0.6,8.6L36.1,72.1z"/>
</g>
</svg>
