<svg xmlns="http://www.w3.org/2000/svg" width="113.481" height="103.962" viewBox="0 0 113.481 103.962"><path d="M129.514,275.725a7.42,7.42,0,0,1-7.422,7.422H36.222a7.422,7.422,0,1,1,0-14.843h85.871a7.414,7.414,0,0,1,7.421,7.422Z" transform="translate(-22.417 -213.595)" fill="#884d00"/><path d="M131.183,272.65a7.433,7.433,0,0,1-6.757,4.344H38.555A7.43,7.43,0,0,1,31.8,272.65a7.428,7.428,0,0,1,6.757-4.346h85.871A7.423,7.423,0,0,1,131.183,272.65Z" transform="translate(-24.75 -213.596)" fill="#aa6100"/><path d="M113.481,337.2A24.513,24.513,0,0,1,101.9,358.577c-7.159,4.715-17.046,7.039-27.968,7.039H39.551C17.709,365.615,0,356.321,0,337.2a6.361,6.361,0,0,1,.745-2.985,7.2,7.2,0,0,1,1.647-2.069,8.757,8.757,0,0,1,5.774-2.095h97.148a8.3,8.3,0,0,1,7.422,4.164A6.365,6.365,0,0,1,113.481,337.2Z" transform="translate(0 -261.653)" fill="#ffa733"/><path d="M115.353,334.211a24.544,24.544,0,0,1-10.838,14.908c-7.159,4.716-17.046,7.039-27.968,7.039H42.168c-19.217,0-35.232-7.193-38.806-21.946a7.2,7.2,0,0,1,1.647-2.069,8.757,8.757,0,0,1,5.774-2.095h97.148A8.3,8.3,0,0,1,115.353,334.211Z" transform="translate(-2.617 -261.654)" fill="#ffb655"/><path d="M211.652,254.252l-19.2,19.2a10.448,10.448,0,0,1-14.776,0l-19.2-19.2Z" transform="translate(-123.352 -202.658)" fill="#eebf00"/><path d="M248.377,254.252l-19.2,19.2a10.5,10.5,0,0,1-1.541,1.271,10.363,10.363,0,0,1-4.007-2.5L205.66,254.252Z" transform="translate(-160.077 -202.658)" fill="#ffd422"/><path d="M118.89,240.663a8.991,8.991,0,0,1-.526,3.038c-1.41,3.934-5.184,5.461-8.125,3.287l-3.527-2.6c-2.462-1.82-5.6-1.075-7.382,1.753l-.15.238c-1.71,2.718-4.69,3.525-7.124,1.933l-7.9-5.165a4.721,4.721,0,0,0-5.733.344l-6.33,5.149a4.734,4.734,0,0,1-6,.159l-7.221-5.352a4.724,4.724,0,0,0-5.945.115l-6.575,5.221a4.723,4.723,0,0,1-5.809.215l-8.513-5.915a4.691,4.691,0,0,0-5.391-.085L18.7,248.186a8.285,8.285,0,0,1-7.86-3.2,8.861,8.861,0,0,1-.708-7c.814-2.616,2.787-4.632,5.352-4.632h97.648c2.515,0,4.524,1.986,5.35,4.621A8.934,8.934,0,0,1,118.89,240.663Z" transform="translate(-7.563 -186.39)" fill="#6dc82a"/><path d="M119.925,237.971c-.035.115-.074.228-.115.344-1.41,3.936-5.184,5.463-8.125,3.29L108.157,239c-2.462-1.818-5.6-1.073-7.382,1.753l-.15.24c-1.71,2.718-4.69,3.525-7.124,1.933l-7.9-5.165a4.718,4.718,0,0,0-5.733.344l-6.33,5.149a4.734,4.734,0,0,1-6,.157l-7.221-5.352a4.727,4.727,0,0,0-5.945.115L47.8,243.395a4.726,4.726,0,0,1-5.809.215l-8.513-5.915a4.683,4.683,0,0,0-5.391-.085L20.143,242.8a8.28,8.28,0,0,1-7.86-3.2,8.253,8.253,0,0,1-.708-1.615c.814-2.616,2.787-4.633,5.352-4.633h97.648C117.09,233.35,119.1,235.337,119.925,237.971Z" transform="translate(-9.009 -186.389)" fill="#7ed63e"/><path d="M123.828,186.345a7.424,7.424,0,0,1-7.438,7.592c-13.334,0-48.851-.3-54.207-.122-.12,0-.24.009-.357.012-6.764.256-8.305,1.34-8.305,4.946v13.194a2.457,2.457,0,0,1-2.457,2.459,2.459,2.459,0,0,0-2.459,2.459v5.747a7.071,7.071,0,0,1-.2,1.693,7.18,7.18,0,0,1-7,5.475H41.22a6.993,6.993,0,0,1-6.993-7.016l.032-10.4a2.9,2.9,0,0,1,2.9-2.891,2.9,2.9,0,0,0,2.9-2.9v-7.818a4.834,4.834,0,0,0-4.835-4.835H26.176a7.534,7.534,0,0,1-7.581-7.285,7.442,7.442,0,0,1,7.44-7.592h90.208A7.535,7.535,0,0,1,123.828,186.345Z" transform="translate(-14.472 -144.132)" fill="#ff3501"/><path d="M152.993,186.345a7.492,7.492,0,0,1-.284,2.208c-14.116-.014-47.847-.293-53.056-.122-7.069.233-8.663,1.292-8.663,4.96v.436c-6.764.256-8.305,1.34-8.305,4.946v13.194a2.457,2.457,0,0,1-2.457,2.459,2.459,2.459,0,0,0-2.459,2.459v5.747a7.07,7.07,0,0,1-.2,1.693A6.994,6.994,0,0,1,71.7,217.4L71.73,207a2.9,2.9,0,0,1,2.9-2.891,2.9,2.9,0,0,0,2.9-2.9v-7.818a4.834,4.834,0,0,0-4.835-4.835H63.646a7.534,7.534,0,0,1-7.581-7.285,7.438,7.438,0,0,1,.286-2.21h89.057A7.535,7.535,0,0,1,152.993,186.345Z" transform="translate(-43.637 -144.132)" fill="#ff5023"/><path d="M113.016,144.94,96.556,161.407a14.642,14.642,0,0,1-20.708,0L59.381,144.94Z" transform="translate(-46.22 -117.574)" fill="#eebf00"/><path d="M145.956,144.94,129.5,161.407a14.529,14.529,0,0,1-5.666,3.518,14.513,14.513,0,0,1-5.661-3.518L101.7,144.94Z" transform="translate(-79.16 -117.574)" fill="#ffd422"/><path d="M113.481,51.155c0,.122,0,.242-.012.362a6.126,6.126,0,0,1-6.118,5.768H6.13A6.131,6.131,0,0,1,0,51.155C0,43.809,3.405,38.279,8.547,34.12A47.374,47.374,0,0,1,23.61,26.451c15.581-5.073,33.131-4.979,33.131-4.979S113.481,21.166,113.481,51.155Z" transform="translate(0 -21.472)" fill="#ffa733"/><path d="M157.229,51.155c0,.122,0,.242-.012.362H62.336a6.131,6.131,0,0,1-6.13-6.13c0-7.345,3.405-12.875,8.547-17.035q1.239-1,2.6-1.9c15.582-5.073,33.131-4.979,33.131-4.979S157.229,21.166,157.229,51.155Z" transform="translate(-43.748 -21.472)" fill="#ffb655"/><g transform="translate(25.872 7.576)"><path d="M373.1,61.661a2.594,2.594,0,1,1-3.771,3.563c-.984-1.041-2.795-4.649-1.754-5.633S372.118,60.62,373.1,61.661Z" transform="translate(-311.736 -58.514)" fill="#fff5cc"/><path d="M313.028,113.4a2.594,2.594,0,1,1-4.843,1.86c-.514-1.337-.815-5.363.522-5.876S312.514,112.058,313.028,113.4Z" transform="translate(-265.411 -97.428)" fill="#fff5cc"/><path d="M249.485,60.952a2.594,2.594,0,1,1-5.188,0c0-1.433,1.161-5.3,2.594-5.3S249.485,59.52,249.485,60.952Z" transform="translate(-216.023 -55.654)" fill="#fff5cc"/><path d="M185.423,114.644a2.594,2.594,0,0,1-5.023-1.3c.358-1.387,2.449-4.84,3.837-4.481S185.781,113.257,185.423,114.644Z" transform="translate(-166.223 -97.051)" fill="#fff5cc"/><path d="M121.66,63.034a2.594,2.594,0,1,1-4.669-2.262c.625-1.289,3.355-4.262,4.645-3.637S122.284,61.745,121.66,63.034Z" transform="translate(-116.731 -56.74)" fill="#fff5cc"/></g></svg>