<svg xmlns="http://www.w3.org/2000/svg" width="172.313" height="172.313" viewBox="0 0 172.313 172.313"><path d="M397,197l6.731,106.013a5.046,5.046,0,0,0,1.773-.321c.137-.034.308-.072.51-.118a40.454,40.454,0,0,0,16.912-7.874C431.4,287.73,435.7,277.5,435.7,264.31V197Z" transform="translate(-263.39 -130.7)" fill="#ff7038"/><path d="M0,197v53.848a5.048,5.048,0,0,0,3.388,4.767L138.68,302.732a5.033,5.033,0,0,0,1.66.281h0V197Z" transform="translate(0 -130.7)" fill="#ffde46"/><path d="M237,282.213l58.918,20.519a5.034,5.034,0,0,0,1.66.281h0V197H237Z" transform="translate(-157.238 -130.7)" fill="#ff9d21"/><path d="M0,266.584l140.341,48.875V304.768L0,255.893Z" transform="translate(0 -169.773)" fill="#f5f0eb"/><path d="M237,349.121l60.579,21.1V359.527L237,338.43Z" transform="translate(-157.238 -224.532)" fill="#ebe1dc"/><path d="M142.9,42.7a5.048,5.048,0,0,0-4.23-.416c-6.823,2.388-33.185,11.562-61.093,21.275C45.817,74.613,12.973,86.043,3.381,89.4a5.048,5.048,0,0,0,.012,9.534l88.149,30.7v25.111a11.779,11.779,0,1,0,23.558,0V137.837l23.574,8.21a5.047,5.047,0,0,0,4.23-.416c1.2-.708,29.409-17.719,29.409-51.466,0-1.394-.334-34.333-29.409-51.466Z" transform="translate(0 -27.865)" fill="#ffef7b"/><path d="M300.142,42.7a5.048,5.048,0,0,0-4.23-.416C289.266,44.609,264.089,53.371,237,62.8v62.731l11.779,4.1v25.111a11.779,11.779,0,1,0,23.558,0V137.837l23.574,8.21a5.047,5.047,0,0,0,4.23-.416c1.2-.708,29.409-17.719,29.409-51.466,0-1.394-.334-34.333-29.409-51.466Z" transform="translate(-157.238 -27.865)" fill="#ffde46"/><g transform="translate(113.417 39.376)"><circle cx="5.048" cy="5.048" r="5.048" transform="translate(20.193)" fill="#ff9d21"/><circle cx="5.048" cy="5.048" r="5.048" transform="translate(26.924 23.558)" fill="#ff9d21"/><circle cx="5.048" cy="5.048" r="5.048" transform="translate(10.096 43.751)" fill="#ff9d21"/><circle cx="5.048" cy="5.048" r="5.048" transform="translate(0 20.193)" fill="#ff9d21"/></g><path d="M200.508,30.291a5.048,5.048,0,0,1-5.048-5.048,16.644,16.644,0,0,0-9.25-14.967l-1.421-.71A5.048,5.048,0,0,1,189.3.534l1.421.71a26.684,26.684,0,0,1,14.831,24A5.048,5.048,0,0,1,200.508,30.291Z" transform="translate(-120.746 -0.001)" fill="#beda4b"/><path d="M237,49.088a5.048,5.048,0,0,0,5.048-5.048A26.745,26.745,0,0,0,237,28.334Z" transform="translate(-157.238 -18.798)" fill="#14cd6e"/><path d="M193.876,103.751a21.876,21.876,0,1,1,21.876-21.876A21.9,21.9,0,0,1,193.876,103.751Z" transform="translate(-114.114 -39.807)" fill="#ff4169"/><path d="M258.876,81.876A21.9,21.9,0,0,0,237,60v43.751A21.9,21.9,0,0,0,258.876,81.876Z" transform="translate(-157.238 -39.807)" fill="#cf3160"/></svg>