<svg xmlns="http://www.w3.org/2000/svg" xmlns:xlink="http://www.w3.org/1999/xlink" width="637.318" height="431.555" viewBox="0 0 637.318 431.555"><defs><linearGradient id="a" x1="0.5" x2="0.5" y2="1" gradientUnits="objectBoundingBox"><stop offset="0" stop-color="#ed1c24"/><stop offset="1" stop-color="#590003"/></linearGradient></defs><g transform="translate(-503.944 419.534)"><path d="M976.879-330.071c101.838,62.474,69.837,81.8,113.422,113.577,56.5,41.2,87.633,211.357-24.883,214.748-223.772,6.744-512.948,0-512.948,0S471.182-74.9,519.024-196.6s171.584-89.952,217.523-144.713,138.495-51.231,240.333,11.243Z" transform="translate(0 3.662)" fill="#caf0ff"/><path d="M1263.852,703.891V665.342h-16.9v7.71h-5.931V657.632h-21.647v15.419h-4.745V661.19h-4.744V590.024h-5.931V544.951H1175.19l.3,54.33-19.191.231v-43.5h-29.738v46.24l-8.9.3V555.923h-10.379V536.055h-6.227V522.712h-24.315v13.344h-6.227v19.867h-10.379v25.256l-4.789.3-1.438-74.824h-32.025v39.805l-11.268.3V484.541h-3.855V471.412h-33.8v13.129H969.1v97.924h-7.117V542.238h-5.93V529.455h-8.6V492.141H935v37.313h-8.6v12.783h-5.931v44.227H916.32l-3.262-.044V535.18l-87.773.839V651.4h-7.413V636.282H791.185v29.06h-7.71V654.667h-16.9v21.647h-16.9v27.577Z" transform="translate(-191.035 -705.375)" fill="#4188e4" opacity="0.9"/><path d="M2210.142-281.641a22.092,22.092,0,0,0-20.763,14.544,15.081,15.081,0,0,0-7.367-1.912,15.155,15.155,0,0,0-15.155,15.155c0,.5.026.986.072,1.47h98.63a12.177,12.177,0,0,0-11.863-9.439,12.2,12.2,0,0,0-3.073.392,17.912,17.912,0,0,0-16.231-10.333,17.9,17.9,0,0,0-5.332.807,22.071,22.071,0,0,0-18.918-10.685Z" transform="translate(-1292.793 -119.931)" fill="#fff"/><path d="M975.922,398.234a6.444,6.444,0,0,1,7.9-4.785,9.486,9.486,0,0,1,11.4-5.038,11.684,11.684,0,0,1,20.987,2.041,8.015,8.015,0,0,1,11.912,7c0,.262-.014.522-.038.778Z" transform="translate(-366.928 -636.454)" fill="#fff"/><path d="M1780.662,39.165a7.807,7.807,0,0,1,9.571-5.8,11.492,11.492,0,0,1,13.818-6.1,14.156,14.156,0,0,1,25.427,2.473,9.71,9.71,0,0,1,14.432,8.486c0,.318-.016.632-.046.942Z" transform="translate(-992.555 -354.759)" fill="#fff"/><path d="M2579.8,206.749a7.806,7.806,0,0,1,9.571-5.8,11.493,11.493,0,0,1,13.818-6.1,14.156,14.156,0,0,1,25.427,2.473,9.71,9.71,0,0,1,14.431,8.486c0,.318-.016.632-.046.942Z" transform="translate(-1613.829 -485.044)" fill="#fff"/><path d="M692.057,579.312a7.807,7.807,0,0,1,9.571-5.8,11.492,11.492,0,0,1,13.818-6.1,14.156,14.156,0,0,1,25.427,2.473A9.711,9.711,0,0,1,755.3,578.37c0,.318-.017.632-.046.943Z" transform="translate(-146.244 -774.684)" fill="#fff"/><g transform="translate(660.054 -310.477)"><g transform="translate(0 76.662)"><path d="M1207.491,478.3l-2.158-1.744c.055-.068,1.368-1.689,3.9-4.477l2.055,1.864C1208.816,476.666,1207.5,478.284,1207.491,478.3Z" transform="translate(-1205.333 -472.08)" fill="#fff"/></g><g transform="translate(12.194 0)"><path d="M1565.944,203c-2.873-2.758-5.793-5.475-8.678-8.077l1.857-2.061c2.907,2.621,5.849,5.358,8.742,8.136Zm-303.876-5.352-1.95-1.974c2.791-2.757,5.723-5.521,8.715-8.215l1.856,2.061C1267.729,192.182,1264.828,194.917,1262.068,197.644Zm286.264-10.513c-3.044-2.563-6.138-5.075-9.2-7.467l1.709-2.186c3.086,2.412,6.207,4.946,9.276,7.531Zm-268.664-5.345-1.763-2.142c3.076-2.532,6.241-5.021,9.409-7.4l1.666,2.219C1285.845,176.817,1282.712,179.281,1279.668,181.786Zm250-9.234c-3.228-2.325-6.507-4.585-9.749-6.718l1.525-2.318c3.274,2.154,6.586,4.437,9.845,6.784ZM1298.61,167.57l-1.563-2.292c3.305-2.253,6.686-4.442,10.048-6.507l1.452,2.364C1305.222,163.177,1301.879,165.342,1298.61,167.57Zm211.275-8.018c-3.414-2.03-6.882-3.981-10.311-5.8l1.3-2.451c3.468,1.84,6.977,3.813,10.429,5.866Zm-191.1-4.359-1.332-2.434c3.517-1.925,7.1-3.767,10.651-5.476l1.2,2.5C1325.8,151.471,1322.258,153.291,1318.783,155.193Zm170.205-6.71c-3.595-1.672-7.245-3.25-10.85-4.689l1.028-2.577c3.653,1.458,7.352,3.056,10.993,4.75ZM1340.1,144.95l-1.063-2.562c3.7-1.537,7.471-2.974,11.195-4.271l.913,2.62C1347.468,142.017,1343.753,143.434,1340.1,144.95Zm126.943-5.214c-3.751-1.246-7.559-2.382-11.318-3.377l.71-2.682c3.815,1.009,7.678,2.162,11.483,3.426Zm-104.629-2.548-.752-2.67c3.854-1.085,7.769-2.054,11.635-2.882l.581,2.713C1370.067,135.165,1366.21,136.12,1362.412,137.189Zm81.805-3.481c-3.862-.759-7.782-1.395-11.653-1.89l.352-2.752c3.931.5,7.913,1.149,11.835,1.919Zm-58.721-1.452-.4-2.745c3.952-.578,7.961-1.028,11.915-1.336l.216,2.766C1393.334,131.244,1389.388,131.686,1385.5,132.256Zm35.317-1.538c-3.914-.232-7.891-.33-11.8-.293l-.026-2.774c3.969-.036,8.011.063,11.989.3Z" transform="translate(-1260.118 -127.643)" fill="#fff"/></g><g transform="translate(326.47 81.765)"><path d="M2676.2,501.141c-1.341-1.4-2.708-2.813-4.063-4.193l1.979-1.944c1.365,1.388,2.74,2.808,4.09,4.22Z" transform="translate(-2672.133 -495.004)" fill="#fff"/></g></g><path d="M2154.389-273.139c-5.566,1.767-10.829,4.432-16.436,6.071a47.656,47.656,0,0,1-33.466-2.668c-11.624-5.522-20.938-15.754-33.36-19.115-9.055-2.45-18.677-.927-28.01-1.875s-19.577-5.7-21.829-14.8a7.723,7.723,0,0,1,.25-5.182c1.613-3.337,6.021-3.947,9.724-4.117,9.451-.433,18.96-.864,28.341.365,11.941,1.564,24,5.8,35.739,3.1,3.587-.825,7-2.279,10.566-3.2,8.442-2.175,17.273-1.258,25.915.317-11.341-15.068-26.363-29.332-46.756-41.842q-5.568-3.417-11.1-6.254c-7.579,4.784-14.658,10.532-22.889,14.078-11.882,5.119-25.27,5.272-38.188,4.538-7.72-.439-16.22-.946-22.365,3.749-4.5,3.438-6.819,9.061-11.006,12.875-5.063,4.611-12.158,6.029-18.8,7.712-8.425,2.137-16.946,5.142-23.288,11.086s-10,15.455-6.934,23.587c3.9,10.326,16.333,14.4,27.33,15.333,14.07,1.2,28.547-.507,42.111,3.419,9.216,2.668,17.486,7.8,26.089,12.044,14.881,7.345,30.894,12.1,46.946,16.307,11.906,3.122,24.058,5.986,36.361,5.63,9.126-.264,18.121-2.3,27.238-2.784,9.676-.518,19.776.642,28.769-2.868A288.516,288.516,0,0,0,2154.389-273.139Z" transform="translate(-1108.188 -57.194)" fill="#fff" opacity="0.3"/><path d="M965.406-89.984c-1.543-.8-3.4-.5-5.125-.289a38.528,38.528,0,0,1-18.66-2.4,78.152,78.152,0,0,1-8.72-4.31c-7.618,7.837-14.508,15.578-20.583,22.819q-1.61,1.918-3.344,3.7c1.122.487,2.231,1,3.321,1.558,3.132,1.594,6.475,4.007,6.67,7.515.19,3.417-2.727,6.173-5.637,7.974-7.971,4.934-18.014,7-24.053,14.17-5.332,6.332-6.825,15.93-13.873,20.272-3.145,1.937-6.937,2.477-10.621,2.748-12.256.9-25.077-.627-36.425,4.089-2.489,1.034-4.86,2.355-7.416,3.212A40.239,40.239,0,0,1,810.517-7.3,259.037,259.037,0,0,1,762.33-8.928a149.554,149.554,0,0,0-32.293,24.281l2.079.961c7.111,3.288,14.336,6.612,22.075,7.832,7.129,1.124,14.406.415,21.588-.3,8.754-.866,17.581-1.747,25.978-4.369,9.254-2.89,17.82-7.848,27.262-10.048,10.388-2.42,21.216-1.371,31.876-1.013,14.158.476,28.591-.34,41.937-5.092s25.593-13.836,31.8-26.572c3.28-6.735,4.936-14.487,10.044-19.966,5.287-5.671,13.37-7.893,19.15-13.061,8.57-7.663,10.338-21.83,3.915-31.364A6.761,6.761,0,0,0,965.406-89.984Z" transform="translate(-175.771 -263.492)" fill="#fff" opacity="0.3"/><rect width="25.884" height="3.462" transform="translate(833.598 -189.709)" fill="#4188e4" opacity="0.3"/><g transform="translate(641.493 -214.357)" opacity="0.2" style="mix-blend-mode:multiply;isolation:isolate"><rect width="10.386" height="13.453" transform="translate(0 53.362)" fill="#4188e4" style="mix-blend-mode:multiply;isolation:isolate"/><rect width="10.386" height="13.453" transform="translate(0 96.633)" fill="#4188e4" style="mix-blend-mode:multiply;isolation:isolate"/><rect width="10.386" height="13.453" transform="translate(15.959 53.362)" fill="#4188e4" style="mix-blend-mode:multiply;isolation:isolate"/><rect width="10.386" height="13.453" transform="translate(31.919 53.362)" fill="#4188e4" style="mix-blend-mode:multiply;isolation:isolate"/><rect width="10.386" height="13.453" transform="translate(31.919 125.914)" fill="#4188e4" style="mix-blend-mode:multiply;isolation:isolate"/><rect width="10.386" height="13.453" transform="translate(15.959 74.828)" fill="#4188e4" style="mix-blend-mode:multiply;isolation:isolate"/><rect width="10.386" height="13.453" transform="translate(15.959 148.893)" fill="#4188e4" style="mix-blend-mode:multiply;isolation:isolate"/><rect width="10.386" height="13.453" transform="translate(15.959 96.633)" fill="#4188e4" style="mix-blend-mode:multiply;isolation:isolate"/><rect width="10.386" height="13.453" transform="translate(45.636 96.633)" fill="#4188e4" style="mix-blend-mode:multiply;isolation:isolate"/><rect width="10.386" height="13.453" transform="translate(45.636 148.893)" fill="#4188e4" style="mix-blend-mode:multiply;isolation:isolate"/><rect width="10.386" height="13.453" transform="translate(58.693 53.362)" fill="#4188e4" style="mix-blend-mode:multiply;isolation:isolate"/><rect width="5.769" height="7.473" transform="translate(142.908)" fill="#4188e4" style="mix-blend-mode:multiply;isolation:isolate"/><rect width="5.769" height="7.473" transform="translate(154.911)" fill="#4188e4" style="mix-blend-mode:multiply;isolation:isolate"/><rect width="5.769" height="7.473" transform="translate(142.908 13.189)" fill="#4188e4" style="mix-blend-mode:multiply;isolation:isolate"/><rect width="5.769" height="7.473" transform="translate(166.913 13.189)" fill="#4188e4" style="mix-blend-mode:multiply;isolation:isolate"/><rect width="5.769" height="7.473" transform="translate(154.911 26.379)" fill="#4188e4" style="mix-blend-mode:multiply;isolation:isolate"/><rect width="5.769" height="7.473" transform="translate(166.913 26.379)" fill="#4188e4" style="mix-blend-mode:multiply;isolation:isolate"/><rect width="5.769" height="7.473" transform="translate(142.908 39.569)" fill="#4188e4" style="mix-blend-mode:multiply;isolation:isolate"/><rect width="5.769" height="7.473" transform="translate(166.913 39.569)" fill="#4188e4" style="mix-blend-mode:multiply;isolation:isolate"/><rect width="5.769" height="7.473" transform="translate(142.908 52.758)" fill="#4188e4" style="mix-blend-mode:multiply;isolation:isolate"/><rect width="5.769" height="7.473" transform="translate(154.911 52.758)" fill="#4188e4" style="mix-blend-mode:multiply;isolation:isolate"/><rect width="5.769" height="7.473" transform="translate(166.913 65.947)" fill="#4188e4" style="mix-blend-mode:multiply;isolation:isolate"/><rect width="5.769" height="7.473" transform="translate(142.908 92.327)" fill="#4188e4" style="mix-blend-mode:multiply;isolation:isolate"/><rect width="5.769" height="7.473" transform="translate(236.39 70.278)" fill="#4188e4" style="mix-blend-mode:multiply;isolation:isolate"/><rect width="5.769" height="7.473" transform="translate(268.44 70.278)" fill="#4188e4" style="mix-blend-mode:multiply;isolation:isolate"/><rect width="5.769" height="7.473" transform="translate(251.988 49.978)" fill="#4188e4" style="mix-blend-mode:multiply;isolation:isolate"/><rect width="5.769" height="7.473" transform="translate(344.721 61.255)" fill="#4188e4" style="mix-blend-mode:multiply;isolation:isolate"/><rect width="5.769" height="7.473" transform="translate(364.017 61.255)" fill="#4188e4" style="mix-blend-mode:multiply;isolation:isolate"/><rect width="5.769" height="7.473" transform="translate(364.017 74.576)" fill="#4188e4" style="mix-blend-mode:multiply;isolation:isolate"/><rect width="5.769" height="7.473" transform="translate(344.721 87.898)" fill="#4188e4" style="mix-blend-mode:multiply;isolation:isolate"/><rect width="5.769" height="7.473" transform="translate(364.017 87.898)" fill="#4188e4" style="mix-blend-mode:multiply;isolation:isolate"/><rect width="5.769" height="7.473" transform="translate(344.721 101.219)" fill="#4188e4" style="mix-blend-mode:multiply;isolation:isolate"/><rect width="5.769" height="7.473" transform="translate(354.369 114.54)" fill="#4188e4" style="mix-blend-mode:multiply;isolation:isolate"/><rect width="5.769" height="7.473" transform="translate(364.017 114.54)" fill="#4188e4" style="mix-blend-mode:multiply;isolation:isolate"/><rect width="5.769" height="7.473" transform="translate(364.017 127.862)" fill="#4188e4" style="mix-blend-mode:multiply;isolation:isolate"/><rect width="5.769" height="7.473" transform="translate(344.721 141.183)" fill="#4188e4" style="mix-blend-mode:multiply;isolation:isolate"/><rect width="5.769" height="7.473" transform="translate(354.369 141.183)" fill="#4188e4" style="mix-blend-mode:multiply;isolation:isolate"/><rect width="5.77" height="7.473" transform="translate(264.381 49.978)" fill="#4188e4" style="mix-blend-mode:multiply;isolation:isolate"/><rect width="5.769" height="7.473" transform="translate(236.39 85.314)" fill="#4188e4" style="mix-blend-mode:multiply;isolation:isolate"/><rect width="5.769" height="7.473" transform="translate(247.073 85.314)" fill="#4188e4" style="mix-blend-mode:multiply;isolation:isolate"/><rect width="5.769" height="7.473" transform="translate(236.39 100.35)" fill="#4188e4" style="mix-blend-mode:multiply;isolation:isolate"/><rect width="5.769" height="7.473" transform="translate(257.757 100.35)" fill="#4188e4" style="mix-blend-mode:multiply;isolation:isolate"/><rect width="5.769" height="7.473" transform="translate(268.44 100.35)" fill="#4188e4" style="mix-blend-mode:multiply;isolation:isolate"/><rect width="5.769" height="7.473" transform="translate(247.073 115.386)" fill="#4188e4" style="mix-blend-mode:multiply;isolation:isolate"/><rect width="5.769" height="7.473" transform="translate(236.39 130.422)" fill="#4188e4" style="mix-blend-mode:multiply;isolation:isolate"/><rect width="5.769" height="7.473" transform="translate(257.757 130.422)" fill="#4188e4" style="mix-blend-mode:multiply;isolation:isolate"/><rect width="5.769" height="7.473" transform="translate(268.44 130.422)" fill="#4188e4" style="mix-blend-mode:multiply;isolation:isolate"/><rect width="5.769" height="7.473" transform="translate(236.39 160.494)" fill="#4188e4" style="mix-blend-mode:multiply;isolation:isolate"/><rect width="5.769" height="7.473" transform="translate(257.757 160.494)" fill="#4188e4" style="mix-blend-mode:multiply;isolation:isolate"/><rect width="10.386" height="13.453" transform="translate(58.693 125.914)" fill="#4188e4" style="mix-blend-mode:multiply;isolation:isolate"/><rect width="31.853" height="3.462" transform="translate(92.096 56.874)" fill="#4188e4"/><rect width="25.884" height="3.462" transform="translate(192.105 47.067)" fill="#4188e4"/><rect width="25.884" height="3.462" transform="translate(192.105 54.54)" fill="#4188e4"/><rect width="25.884" height="3.462" transform="translate(192.105 76.959)" fill="#4188e4"/><rect width="25.884" height="3.462" transform="translate(295.824 70.278)" fill="#4188e4"/><rect width="25.884" height="3.462" transform="translate(295.824 77.751)" fill="#4188e4"/><rect width="25.884" height="3.462" transform="translate(295.824 92.697)" fill="#4188e4"/><rect width="25.884" height="3.462" transform="translate(295.824 115.116)" fill="#4188e4"/><rect width="25.884" height="3.462" transform="translate(295.824 130.062)" fill="#4188e4"/><rect width="25.884" height="3.462" transform="translate(295.824 145.008)" fill="#4188e4"/><rect width="25.884" height="3.462" transform="translate(295.824 159.954)" fill="#4188e4"/><rect width="25.884" height="3.462" transform="translate(192.105 99.378)" fill="#4188e4"/><rect width="25.884" height="3.462" transform="translate(192.105 114.324)" fill="#4188e4"/><rect width="31.853" height="3.462" transform="translate(92.096 66.815)" fill="#4188e4"/><rect width="31.853" height="3.462" transform="translate(92.096 76.757)" fill="#4188e4"/><rect width="31.853" height="3.462" transform="translate(92.096 96.64)" fill="#4188e4"/><rect width="31.853" height="3.462" transform="translate(92.096 116.523)" fill="#4188e4"/><rect width="31.853" height="3.462" transform="translate(92.096 126.465)" fill="#4188e4"/><rect width="31.853" height="3.462" transform="translate(92.096 146.348)" fill="#4188e4"/><rect width="31.853" height="3.462" transform="translate(92.096 166.231)" fill="#4188e4"/></g><rect width="25.884" height="3.462" transform="translate(833.598 -182.236)" fill="#4188e4" opacity="0.3"/><path d="M1154.15,551.331l7.476,14.839,7.847-14.646a8.392,8.392,0,0,0-7.254-11.744c-.086,0-.173-.006-.26-.007s-.174,0-.261,0A8.393,8.393,0,0,0,1154.15,551.331Zm3.825-3.079a3.876,3.876,0,1,1,3.827,3.925A3.877,3.877,0,0,1,1157.975,548.252Z" transform="translate(-505.008 -758.52)" fill="#ff5b7e"/><g transform="translate(531.154 -96.613)"><path d="M638.025,1120a7.849,7.849,0,0,0,6.141-6.329c1.648-9.008,6.859-24.864,23.142-25.155,19.179-.343,22.6,14.038,22.147,24.513a4.468,4.468,0,0,0,4.63,4.677c5.673-.235,13.947,1.08,13.947,10.757,0,0,5.131,18.225-9.46,22.618s-21.644-1.384-27.9,4.475c-5.775,5.411-24.612,11.029-33.709-1.285a19.865,19.865,0,0,0-5.192-4.856c-3.416-2.212-7.912-7.582-4.153-19.894a13.706,13.706,0,0,1,10.157-9.469C637.859,1120.036,637.942,1120.019,638.025,1120Z" transform="translate(-626.197 -1088.512)" fill="#70c0fd"/><path d="M724.342,1173.485a25.069,25.069,0,0,0-3.707,3.491q-.43.5-.837,1.027a14.545,14.545,0,0,1,.592-3.733c.345-.957,1.349-2.578,2.58-4.873a35.4,35.4,0,0,1,4.74-4.9,18.852,18.852,0,0,1,6.324-3.705,18.5,18.5,0,0,0-6.85,2.754c-.667.417-1.343.874-2.011,1.367a55.153,55.153,0,0,0,4.437-27.99,96.2,96.2,0,0,1-2.1,15.885,23.526,23.526,0,0,0-1.169-3.539,29.589,29.589,0,0,0-3.618-6.248,30.289,30.289,0,0,1,2.891,6.589c1.737,5.966.609,7.978-.33,10.009-2.79,6.039-6.165,10.385-7.6,13.923q-.808-1.724-1.644-3.425c-1.192-2.421-2.416-4.818-3.692-7.18q-.31-.575-.624-1.147a19.4,19.4,0,0,1-.638-2.873c-.136-.839-.25-1.687-.331-2.541a40.6,40.6,0,0,1-.173-5.163,40.888,40.888,0,0,0-.3,5.195c0,.872.04,1.745.1,2.618.01.144.022.288.034.432l-.021-.037c-.665-1.161-1.341-2.313-2.044-3.445s-1.423-2.248-2.178-3.333a34.931,34.931,0,0,0-2.405-3.112,35.8,35.8,0,0,1,2.209,3.28c.686,1.135,1.336,2.3,1.965,3.474s1.233,2.371,1.824,3.573,1.164,2.416,1.727,3.636l.215.471c-.377-.117-.735-.221-1.367-.381a40.486,40.486,0,0,0-7.446-1.085,40.668,40.668,0,0,1,7.262,1.867,22.8,22.8,0,0,1,2.142.9q1.253,2.792,2.43,5.626.776,1.867,1.519,3.749c.245.627.49,1.256.725,1.884l.006.017c0,.159,0,.317.014.474.088,1.117.3,3.805.527,7.233a22.2,22.2,0,0,0-6.019-2.078,49.372,49.372,0,0,0-7.949-.528,6.969,6.969,0,0,1-1.257-1.139,9.816,9.816,0,0,1-2.3-5.113,10.42,10.42,0,0,0,1.907,5.522q.255.355.542.683c-1.057-.052-2.112-.13-3.162-.26a19.9,19.9,0,0,1-3.4-.695,9.363,9.363,0,0,1-3.152-1.6,9.713,9.713,0,0,0,3.08,1.866,19.9,19.9,0,0,0,3.128.924q-.32.051-.641.107c-.78.139-1.557.3-2.328.487s-1.537.408-2.291.671a15.492,15.492,0,0,0-2.2.96,15.113,15.113,0,0,1,2.25-.764c.763-.2,1.534-.343,2.307-.468s1.551-.212,2.328-.283,3.006-.148,3.776-.164h0c3.987.538,6.4.557,9.1,1.309a20.971,20.971,0,0,1,6.216,2.858c.077.053.153.107.229.161.573,9.3,1.092,22.045-.125,25.265-1.816,4.8,9.205,3.076,9.205,3.076s-3.708-2.067-5.175-12.872a181.715,181.715,0,0,1-1.861-20.537c.05-.114.1-.229.154-.343.171-.371.36-.738.557-1.1a22.751,22.751,0,0,1,1.3-2.1,24.841,24.841,0,0,1,3.195-3.714,26.507,26.507,0,0,1,8.034-5.214A26.068,26.068,0,0,0,724.342,1173.485Z" transform="translate(-676.943 -1126.15)" fill="#363547"/></g><g transform="translate(610.509 -141.167)"><path d="M1026.943,982.432a37.116,37.116,0,0,0,20.977-5.957c5-3.262,9.691-8.068,10.558-14.847,1.981-15.494-6.945-14.983-9.135-21.3s4.306-9.149,1.5-20.659c-1.506-6.183-6.27-8.861-13.7-18.8s-16.432-15.029-23-11.324-6.3,11.675-11.189,14.329-12.39,11.917-9.526,29.53-16.505,11.044-8.926,31.423C990.059,979.769,1014.367,982.2,1026.943,982.432Z" transform="translate(-982.731 -888.335)" fill="#70c0fd"/><path d="M1079.4,1068.332c.691,9.787,1.7,48.761.234,52.148-2.189,5.052,9.294-1.242,9.294-1.242s-3.052-23.269-4.82-34.635c-.787-5.058-2.23-20.278-2.244-21.6.06-.12.122-.241.186-.361.207-.39.435-.776.672-1.156a23.767,23.767,0,0,1,1.572-2.209,27.51,27.51,0,0,1,3.852-3.907,33.01,33.01,0,0,1,9.686-5.484,33.331,33.331,0,0,0-10.393,4.535,29.03,29.03,0,0,0-4.469,3.673q-.518.524-1.009,1.081a13.536,13.536,0,0,1,.714-3.927c.417-1.007,1.626-2.712,3.11-5.125a40.272,40.272,0,0,1,5.715-5.153,23.641,23.641,0,0,1,7.624-3.9,24.238,24.238,0,0,0-8.258,2.9c-.818.446-1.62.92-2.425,1.437a51.541,51.541,0,0,0,5.349-29.442,88.948,88.948,0,0,1-2.537,16.709,22.647,22.647,0,0,0-1.41-3.723,30.456,30.456,0,0,0-4.361-6.572,29.979,29.979,0,0,1,3.485,6.931c2.026,6.072.82,8.229-.4,10.528-3.363,6.353-7.432,10.924-9.164,14.646q-.975-1.813-1.982-3.6c-1.437-2.546-2.913-5.068-4.45-7.552q-.374-.6-.752-1.207a13.016,13.016,0,0,1-.493-1.706c-.1-.435-.2-.874-.276-1.316-.165-.883-.3-1.775-.4-2.673s-.172-1.8-.2-2.707c-.05-.952-.022-2.012-.008-2.724-.085.687-.227,1.759-.276,2.721-.067.911-.084,1.827-.083,2.744s.048,1.835.121,2.753c.012.152.027.3.042.455l-.026-.039c-.8-1.221-1.616-2.433-2.464-3.623s-1.716-2.365-2.626-3.506a37.833,37.833,0,0,0-2.9-3.274,37.763,37.763,0,0,1,2.663,3.451c.827,1.194,1.61,2.417,2.369,3.654s1.486,2.494,2.2,3.758,1.4,2.541,2.081,3.825c.087.165.173.33.26.495a43.6,43.6,0,0,0-4.627-.951,58.708,58.708,0,0,0-6-.59,58.289,58.289,0,0,1,5.885,1.148,37.632,37.632,0,0,1,5.452,1.763q1.51,2.937,2.93,5.918.936,1.964,1.831,3.943a8.307,8.307,0,0,1,.709,1.6C1078.82,1059.31,1079.4,1068.332,1079.4,1068.332Z" transform="translate(-1044.027 -987.556)" fill="#363547"/></g><path d="M2684.72,592.69l7.411,14.871,7.911-14.611a8.393,8.393,0,0,0-7.2-11.776c-.087,0-.174-.007-.26-.008s-.174,0-.261,0A8.393,8.393,0,0,0,2684.72,592.69Zm3.838-3.062a3.876,3.876,0,1,1,3.81,3.941A3.876,3.876,0,0,1,2688.558,589.628Z" transform="translate(-1694.925 -790.7)" fill="#363547"/><path d="M910.606,1395.834s.643-10.684,9.942-9.695c0,0,12.662-20.18,25.917,8.309,0,0,11.969-6.469,16.371,7.6,0,0,7.37-13.732,17.856-9.182s14.063,17.045,14.063,17.045l-77.391,1.649Z" transform="translate(-316.15 -1411.118)" fill="#70c0fd"/><g transform="translate(670.461 -263.409)"><path d="M1891.487,509.85c-.386.257-7.2,12.5-7.2,12.5l-9.173-8.067,8.912-14.856,7.462,4.186Z" transform="translate(-1736.445 -463.747)" fill="#ffc0bb"/><path d="M1891.987,508.024c1.131,3.2,3.45,7.429,8.088,9.562,1.957-3.47,4.308-7.588,4.53-7.736v-6.235l-7.462-4.186Z" transform="translate(-1749.563 -463.747)" fill="#f99893"/><path d="M1497.007,1101.1s-2.594-1.83-5.072,4.028.851,8.185.851,8.185,4.263-3.154,4.221-3.755-.194-8.165-.194-8.165Z" transform="translate(-1437.839 -931.289)" fill="#fff"/><path d="M1507.447,1091.789s-2.1-1.293-4.458,2.4a24.234,24.234,0,0,0-2.625,6.438c-3.154,11.264,0,11.264,0,11.264l5.294-2.253s5.069-12.916,4.769-13.967S1507.447,1091.789,1507.447,1091.789Z" transform="translate(-1444.015 -924.094)" fill="#ff5b7e"/><path d="M1.727,0H88.835a1.727,1.727,0,0,1,1.727,1.727v0a1.727,1.727,0,0,1-1.727,1.727H1.727A1.727,1.727,0,0,1,0,1.727v0A1.727,1.727,0,0,1,1.727,0Z" transform="translate(18.652 138.692)" fill="#283f56"/><rect width="6.082" height="16.107" transform="translate(86.123 140.419)" fill="#283f56"/><path d="M0,0H7.322a0,0,0,0,1,0,0V11.208a3.661,3.661,0,0,1-3.661,3.661h0A3.661,3.661,0,0,1,0,11.208V0A0,0,0,0,1,0,0Z" transform="translate(38.702 137.265)" fill="#283f56"/><path d="M1446.839,1006.186c.875,1,22.189,21.065,22.189,21.065l-1.8,2.48-22.528-22.221Z" transform="translate(-1401.829 -857.713)" fill="#283f56"/><path d="M2312.372,1172.424h1.194a4.506,4.506,0,0,1,4.506,4.506v5.783h-5.557s-2.478-4.28-3.379-3.379S2312.372,1172.424,2312.372,1172.424Z" transform="translate(-2073.766 -986.952)" fill="#ffe5b6"/><circle cx="32.652" cy="32.652" r="32.652" transform="translate(47.161 229.253) rotate(-45)" fill="#1a1a1a"/><path d="M1634.755,1317.718A14.718,14.718,0,1,1,1620.037,1303,14.718,14.718,0,0,1,1634.755,1317.718Z" transform="translate(-1526.7 -1088.465)" fill="#9e9da2"/><circle cx="32.652" cy="32.652" r="32.652" transform="matrix(0.025, -1, 1, 0.025, 214.679, 261.08)" fill="#1a1a1a"/><path d="M2330.252,1317.718A14.718,14.718,0,1,1,2315.533,1303,14.719,14.719,0,0,1,2330.252,1317.718Z" transform="translate(-2067.397 -1088.465)" fill="#9e9da2"/><path d="M10.286,0H83.933a0,0,0,0,1,0,0V20.572a0,0,0,0,1,0,0H10.286A10.286,10.286,0,0,1,0,10.286v0A10.286,10.286,0,0,1,10.286,0Z" transform="translate(48.393 203.872)" fill="#283f56"/><rect width="73.097" height="12.264" rx="6.132" transform="translate(78.426 153.109)" fill="#ff5b7e"/><path d="M1595.379,959.969s-5.846,3.229-10.577,16.746-3.717,33.9,25.682,35.481h45.168l4.506-7.922s-3.83-53.917-12.615-77.8h14.868s4.487,45.9,20.256,52.089a3.974,3.974,0,0,1,2.5,3.708v9.082l-23.88,30.863h-78.622s-18.473,1.628-22.978-29.737l-53.3-.817a4.389,4.389,0,0,1-4.134-5.671c1.663-5.415,5.049-13.05,11.195-14.728C1523.189,968.605,1595.379,959.969,1595.379,959.969Z" transform="translate(-1446.415 -795.746)" fill="#333"/><path d="M1530.246,1090q.109.183.227.367h76.583l.783-1.8c4.214-9.233,8.525-11.615,8.525-11.615h-78.549A8.7,8.7,0,0,0,1530.246,1090Z" transform="translate(-1467.4 -912.729)" fill="#283f56"/><path d="M1499.886,1143.822h57.221a8.939,8.939,0,0,0,8.447-11.871c-3.049-8.77-10.135-18.2-27.577-19.818-22.529-2.086-36.152,15.916-41.544,25.909A3.92,3.92,0,0,0,1499.886,1143.822Z" transform="translate(-1441.679 -939.95)" fill="#ff5b7e"/><path d="M2160.824,1242.086,2178.4,1213.7s9.011-6.984,26.809-3.379c11.053,2.239,17.588,9.615,20.953,14.883a3.663,3.663,0,0,1-3.079,5.643H2196.02a27.424,27.424,0,0,0-21.351,10.214l-.694.861a19.792,19.792,0,0,1-15.409,7.371h0a15.891,15.891,0,0,1-10.89-4.319l-3.07-2.89Z" transform="translate(-1945.954 -1015.611)" fill="#ff5b7e"/><path d="M2140.866,786.263a3.792,3.792,0,0,0-4.524-3.72c-9.964,1.959-20.424,9.945-20.424,19.5s10.459,17.539,20.424,19.5a3.792,3.792,0,0,0,4.524-3.72Z" transform="translate(-1923.653 -683.791)" fill="#ff5b7e"/><path d="M2228.006,799.889v31.387a16.469,16.469,0,0,0,0-31.387Z" transform="translate(-2010.794 -697.333)" fill="#fff"/><rect width="77.646" height="46.82" transform="translate(25.11 91.871)" fill="#ff5b7e"/><rect width="80.95" height="5.895" transform="translate(23.458 85.977)" fill="#d12a56"/><path d="M1438.42,999.314a1.605,1.605,0,1,1-1.6-1.605A1.6,1.6,0,0,1,1438.42,999.314Z" transform="translate(-1394.452 -851.123)" fill="#282828"/><path d="M1.07,0H37.453a1.07,1.07,0,0,1,1.07,1.07v0a1.07,1.07,0,0,1-1.07,1.07H1.07A1.07,1.07,0,0,1,0,1.07v0A1.07,1.07,0,0,1,1.07,0Z" transform="translate(73.303 184.272)" fill="#333"/><path d="M1.07,0H37.452a1.07,1.07,0,0,1,1.07,1.07v0a1.07,1.07,0,0,1-1.07,1.07H1.07A1.07,1.07,0,0,1,0,1.07v0A1.07,1.07,0,0,1,1.07,0Z" transform="translate(73.303 189.686)" fill="#333"/><path d="M2018.456,1181.5l-2.823,30.318-2.425,4.369-4.36-3.155.088-32.307Z" transform="translate(-1840.414 -993.408)" fill="#ffc0bb"/><path d="M2097.009,1171.446l-1.391,33.159-2.425,4.368-4.36-3.155.088-32.307Z" transform="translate(-1902.597 -986.191)" fill="#ffc0bb"/><g transform="translate(185.035 215.963)"><path d="M2102.529,1342.514l-18.821.063a.267.267,0,0,1-.267-.265l-.005-1.415a.267.267,0,0,1,.266-.267l18.821-.063a.267.267,0,0,1,.268.266l0,1.416A.266.266,0,0,1,2102.529,1342.514Z" transform="translate(-2083.436 -1333.633)" fill="#daeef7"/><path d="M2085.113,1310.494l-.624,5.419c-.077.668.3,1.273.79,1.272l17.054-.057a1.243,1.243,0,0,0,1.111-.8,2.37,2.37,0,0,0-.485-2.414c-1.534-2.153-6.552-2.663-9.013-4.5l-7.944.026C2085.559,1309.445,2085.182,1309.89,2085.113,1310.494Z" transform="translate(-2084.247 -1309.417)" fill="#ff5b7e"/><g transform="translate(8.372 0.471)"><path d="M2121.183,1314.212h0a.366.366,0,0,1-.1-.441,3.294,3.294,0,0,1,3.5-2.189c.123.021.207.184.187.353v.005c-.02.163-.131.271-.25.25a2.841,2.841,0,0,0-3.062,1.9C2121.405,1314.222,2121.286,1314.274,2121.183,1314.212Z" transform="translate(-2121.051 -1311.533)" fill="#daeef7"/></g><g transform="translate(10.146 1.162)"><path d="M2129.151,1317.318h0a.365.365,0,0,1-.1-.441,3.294,3.294,0,0,1,3.5-2.189c.123.021.207.184.187.353v.006c-.02.163-.13.27-.25.25a2.842,2.842,0,0,0-3.063,1.9C2129.373,1317.328,2129.254,1317.38,2129.151,1317.318Z" transform="translate(-2129.019 -1314.639)" fill="#daeef7"/></g><g transform="translate(11.795 1.807)"><path d="M2136.563,1320.216h0a.366.366,0,0,1-.1-.441,3.294,3.294,0,0,1,3.5-2.19c.123.021.208.184.187.353v.005c-.02.163-.131.271-.25.251a2.841,2.841,0,0,0-3.063,1.9C2136.785,1320.226,2136.666,1320.278,2136.563,1320.216Z" transform="translate(-2136.431 -1317.537)" fill="#daeef7"/></g><path d="M2089.831,1327.642c-1.358-4.371-3.676-4.847-4.94-4.742l-.4,3.485c-.077.668.3,1.274.79,1.272Z" transform="translate(-2084.247 -1319.89)" fill="#e87b50" opacity="0.3" style="mix-blend-mode:multiply;isolation:isolate"/></g><path d="M1.07,0H37.453a1.07,1.07,0,0,1,1.07,1.07v0a1.07,1.07,0,0,1-1.07,1.07H1.07A1.07,1.07,0,0,1,0,1.07v0A1.07,1.07,0,0,1,1.07,0Z" transform="translate(73.303 195.1)" fill="#333"/><path d="M2051.518,983.735c2.23.172,11.494,3.946,12.695,10.636s0,58.67,0,58.67H2053.92s-8.234-41.171-8.234-42.373S2051.518,983.735,2051.518,983.735Z" transform="translate(-1869.053 -840.259)" fill="#282828"/><path d="M1754.332,916.68c.172.515-2.261,23.5,21.171,25.389s36.984,4.975,36.984,4.975-3.26,51.979-3.088,54.552c0,0,8.063,1.372,11.494.858,0,0,18.356-57.64,13.038-69.477s-47.69-16.3-47.69-16.3Z" transform="translate(-1642.544 -788.129)" fill="#333"/><path d="M1883.149,730.565s.241,11.191.984,12.227,36.253,14.6,36.253,14.6l-5.829,6.589-26.162-7.472s-18.737-6.722-18.546-7.207,1.223-7.369,2.15-10.066a80.381,80.381,0,0,1,4.422-8.791Z" transform="translate(-1732.352 -643.344)" fill="#f9b7b4"/><path d="M1774.411,555.525s-23.724,8.62-26.426,55.453l-1.158,26.633s27.019,11.579,42.459,1.544c0,0,1.563-47.536,3.19-64.913a8.9,8.9,0,0,0-3.187-7.683C1784.113,562.271,1775.283,555.123,1774.411,555.525Z" transform="translate(-1636.712 -507.345)" fill="url(#a)"/><path d="M1826.736,699.417s-5.8,23.975,2.309,30.565c5.056,4.108,52.208,12.165,52.208,12.165l3.041-7.35s-37.548-13.4-39.79-14.953,1.521-22.049,1.521-22.049Z" transform="translate(-1697.273 -617.962)" fill="#ffc0bb"/><path d="M1840.086,588.066a7.42,7.42,0,0,0-7.785-1.277c-3.625,1.529-8.812,5.876-11.617,18.111l-2.377,10.555s17.625,4.327,23.031,4.083l2.766-16.321S1845.672,593.02,1840.086,588.066Z" transform="translate(-1692.283 -531.212)" fill="#ed1c24"/><path d="M1511.949,725.4h-14.434l-27.061,52.715h14.434l27.061-52.715Z" transform="translate(-1421.852 -639.42)" fill="#333"/><g transform="translate(60.608 103.055)"><path d="M1535.728,818.369l-9.687-4.973a3.03,3.03,0,0,1-1.311-4.075l2.847-5.545a3.031,3.031,0,0,1,4.075-1.311l9.687,4.973a3.03,3.03,0,0,1,1.311,4.075l-2.847,5.545A3.03,3.03,0,0,1,1535.728,818.369Zm-4.885-14.325a1.254,1.254,0,0,0-1.687.542l-2.846,5.545a1.254,1.254,0,0,0,.543,1.687l9.686,4.973a1.255,1.255,0,0,0,1.687-.542l2.846-5.545a1.254,1.254,0,0,0-.542-1.687Z" transform="translate(-1524.396 -802.131)" fill="#ffe5b6"/></g><path d="M1873.2,465.036a4.746,4.746,0,0,1-2.168,6.513,5.172,5.172,0,0,1-6.5-2.9,4.746,4.746,0,0,1,2.168-6.513A5.172,5.172,0,0,1,1873.2,465.036Z" transform="translate(-1727.824 -434.494)" fill="#ffc0bb"/><g transform="translate(166.806 215.963)"><path d="M2020.625,1342.514l-18.821.063a.266.266,0,0,1-.267-.265l-.005-1.415a.266.266,0,0,1,.265-.267l18.821-.063a.267.267,0,0,1,.267.266l0,1.416A.267.267,0,0,1,2020.625,1342.514Z" transform="translate(-2001.533 -1333.633)" fill="#daeef7"/><path d="M2003.209,1310.494l-.623,5.419c-.077.668.3,1.273.79,1.272l17.054-.057a1.243,1.243,0,0,0,1.111-.8,2.37,2.37,0,0,0-.485-2.414c-1.534-2.153-6.552-2.663-9.012-4.5l-7.944.026C2003.656,1309.445,2003.279,1309.89,2003.209,1310.494Z" transform="translate(-2002.344 -1309.417)" fill="#ff5b7e"/><g transform="translate(8.372 0.471)"><path d="M2039.28,1314.212h0a.366.366,0,0,1-.1-.441,3.293,3.293,0,0,1,3.5-2.189c.123.021.207.184.187.353v.005c-.02.163-.13.271-.249.25a2.841,2.841,0,0,0-3.063,1.9C2039.5,1314.222,2039.383,1314.274,2039.28,1314.212Z" transform="translate(-2039.148 -1311.533)" fill="#daeef7"/></g><g transform="translate(10.146 1.162)"><path d="M2047.248,1317.318h0a.367.367,0,0,1-.1-.441,3.294,3.294,0,0,1,3.5-2.189c.123.021.207.184.186.353v.006c-.019.163-.13.27-.249.25a2.841,2.841,0,0,0-3.063,1.9C2047.469,1317.328,2047.351,1317.38,2047.248,1317.318Z" transform="translate(-2047.116 -1314.639)" fill="#daeef7"/></g><g transform="translate(11.795 1.807)"><path d="M2054.659,1320.216h0a.365.365,0,0,1-.1-.441,3.294,3.294,0,0,1,3.5-2.19c.123.021.207.184.186.353v.005c-.02.163-.13.271-.249.251a2.842,2.842,0,0,0-3.063,1.9C2054.88,1320.226,2054.761,1320.278,2054.659,1320.216Z" transform="translate(-2054.527 -1317.537)" fill="#daeef7"/></g><path d="M2007.928,1327.642c-1.358-4.371-3.676-4.847-4.941-4.742l-.4,3.485c-.077.668.3,1.274.79,1.272Z" transform="translate(-2002.344 -1319.89)" fill="#e87b50" opacity="0.3" style="mix-blend-mode:multiply;isolation:isolate"/></g><path d="M5.636,0H97.692a5.636,5.636,0,0,1,5.636,5.636v0a5.635,5.635,0,0,1-5.635,5.635H5.636A5.636,5.636,0,0,1,0,5.636v0A5.636,5.636,0,0,1,5.636,0Z" transform="translate(119.877 223.177)" fill="#283f56"/><path d="M1327.983,1451.874h-63.078s-28.836-8.923,0-8.622c0,0-16.971-12.611,8.711-9.609S1301.7,1444.3,1301.7,1444.3,1306.807,1435.265,1327.983,1451.874Z" transform="translate(-1252.089 -1189.671)" fill="#fff" opacity="0.8"/><path d="M1937.561,1482.447l41.023-.3s-22.409-12.907-25.563-7.275C1953.021,1474.875,1913.315,1466.663,1937.561,1482.447Z" transform="translate(-1778.896 -1220.425)" fill="#fff" opacity="0.8"/><path d="M2287.086,1422.141h-71.945s-6.437-7.717,7.72-4.918c0,0-9.18-11.814,12.037-7.083l12.895,4.321s-21.046-26.623,2.591-17.387S2287.086,1422.141,2287.086,1422.141Z" transform="translate(-1999.657 -1160.087)" fill="#fff" opacity="0.8"/><path d="M1714,1481.305h-19.015s-2.469-5.407,4.443-2.7C1699.431,1478.6,1690.124,1460.429,1714,1481.305Z" transform="translate(-1596.077 -1219.283)" fill="#fff" opacity="0.8"/><path d="M1954.94,508.807l-.932,3.635s-8.138-6.594-8.073-6.722,1.48-2.477,2.091-2.284,5.693,2.155,5.693,2.284S1954.94,508.807,1954.94,508.807Z" transform="translate(-1791.503 -466.853)" fill="#fff"/><path d="M1899.76,422.708a9.991,9.991,0,0,0,6,3.009c.347-1.253.587-2.16.587-2.16s2.739-.848,3.616-1.821c0,0-2.767-3.789-2.808-5.565s2.718-12.422-4.946-18.453-12.217,4.787-12.217,4.787l-3.25,11.2-4.462,6.772a17.765,17.765,0,0,0,7.151,10.431,15.877,15.877,0,0,0,13.937,2.135c.279-.129,1.1-2.776,1.8-5.24A9.524,9.524,0,0,1,1899.76,422.708Z" transform="translate(-1742.016 -383.252)" fill="#ffc0bb"/><path d="M1966.7,479.508a1.245,1.245,0,0,0,1.65.45,1.131,1.131,0,0,0,.475-1.573,1.245,1.245,0,0,0-1.65-.45A1.131,1.131,0,0,0,1966.7,479.508Z" transform="translate(-1807.527 -446.923)" fill="#333"/><path d="M1959.4,467.509a10.335,10.335,0,0,1,1.275-.94,5.45,5.45,0,0,1,1.349-.6,5,5,0,0,1,1.45-.209l.19-.008c.063,0,.125.01.189.011l.388.02c.261.017.519.069.8.075a4.438,4.438,0,0,0-.694-.424,3.767,3.767,0,0,0-.8-.25,3.53,3.53,0,0,0-1.728.082,3.764,3.764,0,0,0-1.51.861A3.35,3.35,0,0,0,1959.4,467.509Z" transform="translate(-1801.975 -437.064)" fill="#333"/><path d="M1885.665,435.728s-2.689,2.28-3.362,12.757c-.522,8.127-7.324,9.448-7.188,9.4s1.913-17.851,2.256-18.451,2.631-7.377,2.988-7.548,4.989,2.853,5.246,2.927S1885.665,435.728,1885.665,435.728Z" transform="translate(-1736.445 -411.233)" fill="#d12a56"/><path d="M1851.193,356.165s-2.745-17.988-25.818-17.014-22.317,27.736-22.317,27.736-.928,19.391,12.882,19.385c0,0,9.349.6,9.349-11.065,0-11.283,3.431-11.283,3.431-11.283Z" transform="translate(-1680.418 -339.112)" fill="#ff5b7e"/><path d="M1808.1,381.07c-5.331,8.062-5.04,18.415-5.04,18.415s-.928,19.39,12.882,19.385c0,0,9.1.585,9.343-10.61C1812.613,403.776,1808.523,392.634,1808.1,381.07Z" transform="translate(-1680.418 -371.731)" fill="#ff5b7e" opacity="0.5" style="mix-blend-mode:multiply;isolation:isolate"/><path d="M1852.916,509.1a2.616,2.616,0,1,1-2.616-2.616A2.616,2.616,0,0,1,1852.916,509.1Z" transform="translate(-1715.121 -469.23)" fill="#d12a56"/><path d="M1918.4,421.476c.7-.242,18.3-1.6,26.56-2.227a1.506,1.506,0,0,0,.747-2.737l-4.834-3.371Z" transform="translate(-1770.098 -396.664)" fill="#1a1a1a"/><path d="M1918.4,409.867c.784-.271,17.969-5.961,22.914-7.6a1.281,1.281,0,0,0,.775-1.719l-.664-1.561a1.283,1.283,0,0,0-1.791-.625Z" transform="translate(-1770.098 -385.055)" fill="#283f56"/><path d="M2054.734,848.232s5.829-3.548,8.364-3.548,7.856,1.521,7.856,4.055a6.072,6.072,0,0,1-1.521,4.055l-5.147,4.44s-2.456,1.9-3.469.882-4.055.254-9.073-2.522c-4.926-2.724-.3-4.321.456-5.081S2054.734,848.232,2054.734,848.232Z" transform="translate(-1872.021 -732.157)" fill="#ffc0bb"/><path d="M2107.874,858.619a5.392,5.392,0,1,1-5.392-5.392A5.392,5.392,0,0,1,2107.874,858.619Z" transform="translate(-1909.015 -738.799)" fill="#1a1a1a"/></g><rect width="568.743" height="6.474" rx="3.237" transform="translate(545.689 -1.475)" fill="#363547"/><g transform="translate(977.02 -114.02)"><path d="M2655.694,1087.965a30.64,30.64,0,0,1-17.313-4.917c-4.127-2.693-8-6.659-8.713-12.254-1.635-12.788,5.732-12.366,7.539-17.581s-3.553-7.551-1.24-17.051c1.244-5.1,5.176-7.313,11.308-15.514s13.562-12.4,18.982-9.346,5.2,9.636,9.235,11.826,10.225,9.835,7.862,24.372,13.622,9.115,7.367,25.934C2686.134,1085.767,2666.072,1087.772,2655.694,1087.965Z" transform="translate(-2629.432 -1010.305)" fill="#70c0fd"/><path d="M2723.356,1158.86c-.571,8.077-1.405,40.244-.194,43.039,1.807,4.17-7.671-1.025-7.671-1.025s2.519-19.2,3.978-28.584c.65-4.174,1.84-16.736,1.852-17.829-.05-.1-.1-.2-.154-.3-2.113-3.993-6.531-8.141-13.024-10.528a25.717,25.717,0,0,1,13.1,7.666,11.183,11.183,0,0,0-.589-3.241c-.953-2.3-2.621-5.042-7.283-8.482a24.091,24.091,0,0,0-2.988-1.89c-.523-.276-1.062-.525-1.611-.753a16.108,16.108,0,0,0-1.693-.574,16.267,16.267,0,0,1,1.769.342c.583.154,1.162.331,1.732.539a24.786,24.786,0,0,1,3.314,1.511c.677.37,1.343.763,2,1.186a42.542,42.542,0,0,1-4.415-24.3,73.371,73.371,0,0,0,2.094,13.79,18.649,18.649,0,0,1,1.163-3.073,23.943,23.943,0,0,1,2.58-4.163c.336-.425.681-.842,1.02-1.261-.287.458-.577.912-.857,1.37a23.413,23.413,0,0,0-2.018,4.35,17.64,17.64,0,0,0-.749,3.052,14.79,14.79,0,0,0-.1,2.982,22.771,22.771,0,0,0,1.178,2.655c2.775,5.243,6.133,9.016,7.564,12.087q.8-1.5,1.635-2.974c1.186-2.1,2.4-4.182,3.673-6.233q.308-.5.621-1a23.073,23.073,0,0,0,.964-4.7,30.825,30.825,0,0,0,.172-4.482,30.977,30.977,0,0,1,.3,4.51c0,.757-.039,1.515-.1,2.273-.01.125-.023.25-.035.376l.021-.032c.662-1.007,1.335-2.008,2.033-2.99s1.416-1.952,2.167-2.894a31.377,31.377,0,0,1,2.393-2.7,31.127,31.127,0,0,0-2.2,2.848c-.682.986-1.329,2-1.956,3.016s-1.227,2.059-1.815,3.1-1.158,2.1-1.718,3.156l-.214.408c.238-.064.6-.162,1.361-.331a45.794,45.794,0,0,1,7.408-.941,45.261,45.261,0,0,0-7.226,1.621c-.7.227-1.456.49-2.131.782q-1.247,2.424-2.418,4.885-.772,1.621-1.51,3.254a6.831,6.831,0,0,0-.585,1.319C2723.832,1151.413,2723.356,1158.86,2723.356,1158.86Z" transform="translate(-2689.797 -1092.194)" fill="#363547"/></g><path d="M723.273,1451.689s5.54-8.375,15.63-6.577c0,0,5.555-11.8,20.974-11.936,15.627-.139,18.595,10.746,18.595,10.746s4.452-3.757,14.541.1,13.651,10.813,13.651,10.813Z" transform="translate(-170.512 -1453.076)" fill="#363547"/><path d="M2748.86,1395.834s-.644-10.684-9.942-9.695c0,0-12.662-20.18-25.917,8.309,0,0-11.969-6.469-16.371,7.6,0,0-7.37-13.732-17.856-9.182s-14.062,17.045-14.062,17.045l77.391,1.649Z" transform="translate(-1679.839 -1411.118)" fill="#70c0fd"/><path d="M2938.842,1451.689s-5.54-8.375-15.63-6.577c0,0-5.555-11.8-20.973-11.936-15.628-.139-18.6,10.746-18.6,10.746s-4.451-3.757-14.541.1-13.651,10.813-13.651,10.813Z" transform="translate(-1828.125 -1453.076)" fill="#363547"/><path d="M2873.965,856.15c-5.81-2.972-10.692-7.922-12.438-13.964-1.684-5.826-.379-12.014,1.036-17.9.619-2.578,1.247-5.34.242-7.806a16.05,16.05,0,0,0-2.911-4.065c-9.386-11.059-11.529-26.248-10.34-40.406.33-3.929.919-7.94,2.874-11.418s5.524-6.363,9.665-6.635c6.4-.421,12.492,5.235,18.584,3.334,4.366-1.363,6.569-6.053,10.525-8.271,3.326-1.864,7.433-1.754,11.291-1.588a11.083,11.083,0,0,1,3.583.551c2.549,1,3.85,3.669,4.659,6.172,1.309,4.047,1.957,8.266,3.271,12.311s3.414,8.036,6.958,10.605c2.846,2.063,6.376,3.041,9.584,4.552,7.929,3.736,13.7,10.665,17.983,18.021a28.8,28.8,0,0,1,3.116,6.918c2.058,7.667-1.916,16.421-9.2,20.266-2.709,1.43-5.755,2.217-8.455,3.665-6.185,3.318-9.785,9.607-13.326,15.454s-7.806,11.937-14.474,14.264C2897.082,863.384,2882.245,860.387,2873.965,856.15Z" transform="translate(-1823.308 -919.891)" fill="#70c0fd"/><path d="M3020.652,867.878c-1.444-.209-2.9-.316-4.35-.382s-2.909-.051-4.364-.006q-.6.021-1.194.051a37.705,37.705,0,0,0,5.409-3.084,19.771,19.771,0,0,0,5.051-4.909,18.681,18.681,0,0,1-5.26,4.411,36.822,36.822,0,0,1-5.966,2.745c-1.869.682-3.759,1.264-5.663,1.8q.425-.757.787-1.557a21.809,21.809,0,0,0,1.288-3.713,23.056,23.056,0,0,0,.627-3.922,24.947,24.947,0,0,0-.043-3.956,24.539,24.539,0,0,1-.28,3.9,21.791,21.791,0,0,1-.917,3.7,19.729,19.729,0,0,1-1.5,3.347,17.462,17.462,0,0,1-.948,1.494,6,6,0,0,1-1.1,1.274c-1.564.413-3.134.806-4.706,1.208-5,1.294-12.052,2.944-19.793,9.563-.326-3.871-.678-8.3-.922-11.406a28.921,28.921,0,0,1,.46-7.884l.008-.04q.8-3.985,1.678-7.959,1.328-6.024,2.793-12.007c1.97-8.377,1.51-9.47,1.683-11.373a8.789,8.789,0,0,0,.007-1.554c0-.028,0-.054-.006-.078-.14-1.735-.324-3.459-.57-5.167a85.206,85.206,0,0,0-2.033-10.051,86.331,86.331,0,0,1,1.17,10.181c.1,1.7.136,3.411.13,5.11,0,.85-.024,1.7-.056,2.544-.019.422-.037.844-.065,1.262-.013.209-.027.419-.043.625-.01.124-.706,3.12-.971,3.954-1.635,5.145-3.167,10.338-4.634,15.563q-1.026,3.674-2,7.377a30.277,30.277,0,0,0-.672,3.317c-.154-.477-1.431-4.009-2.05-5.463a111.6,111.6,0,0,0-11.464-21.149c-1.994-2.891-2.257-3.17-4.9-6.6,3.278,4.821,2.316,3.35,4.549,6.946a114.378,114.378,0,0,1,10.256,21.7c.974,2.929,1.488,4.41,2.476,8.269.118.466.235.931.337,1.4q.09.394.177.788a61.737,61.737,0,0,0,.351,10.892c.174,1.47,1.892,27.879,2.09,37.561.444,21.755-3.395,46.372-3.395,46.372s23.012,7.168,18.337-1.5c-3.135-5.809-10.667-58.3-12.3-76.756.122-.137.245-.274.369-.409,6.994-7.574,14.269-10.042,19.431-11.855,2.38-.829,4.778-1.643,7.158-2.544h0c1.4-.282,5.47-1.034,6.9-1.216s2.867-.319,4.305-.4,2.88-.1,4.32-.023a25.157,25.157,0,0,1,4.3.58A25.68,25.68,0,0,0,3020.652,867.878Z" transform="translate(-1905.727 -970.407)" fill="#363547"/></g></svg>