<svg xmlns="http://www.w3.org/2000/svg" width="160.873" height="160.906" viewBox="0 0 160.873 160.906"><path d="M219.465,367.5v35.494H210v9.465h14.2l3.155-23.663L224.2,374.6l-1.358-5.43Z" transform="translate(-143.761 -251.553)" fill="#bd8176"/><path d="M269.2,403h-9.465V367.505l-3.016,1.687L255,374.6v37.86h14.2Z" transform="translate(-174.564 -251.557)" fill="#9f5b4c"/><path d="M240,61.39V76.856l2.366,3.155,2.366-3.155v-18.2L241.42,56.97Z" transform="translate(-164.296 -38.996)" fill="#edc7b8"/><path d="M259.733,61.39,257.9,56.97,255,58.658v18.2l2.366,3.155,2.366-3.155Z" transform="translate(-174.563 -38.996)" fill="#e9b8a4"/><path d="M42.576,235.937H14.233v-.2L9.484,178.754l-9.432.786,4.716,56.594v47.128h9.465v-18.93H47.361v18.93h9.465V250.188a14.266,14.266,0,0,0-14.25-14.25Zm-28.342,18.93V245.4H42.576a4.791,4.791,0,0,1,4.785,4.785v4.68Z" transform="translate(-0.052 -122.357)" fill="#e08450"/><path d="M372.593,235.937H344.25A14.266,14.266,0,0,0,330,250.188v33.075h9.465v-18.93h33.128v18.93h9.465V236.134c.113-1.353,4.59-55.074,4.716-56.594l-9.432-.786C376.955,183.392,378.853,160.554,372.593,235.937Zm0,18.93H339.465v-4.68a4.791,4.791,0,0,1,4.785-4.785h28.342Z" transform="translate(-225.901 -122.357)" fill="#ca4949"/><path d="M315,238.4h37.86V210H333.93l-12.736,14.2Z" transform="translate(-215.633 -143.745)" fill="#9f5b4c"/><path d="M112.86,238.4H75V210H93.93l12.42,13.9Z" transform="translate(-51.354 -143.745)" fill="#bd8176"/><path d="M210,120v28.4l7.1,3.155,7.1-3.155,3.155-14.2L224.2,120Z" transform="translate(-143.761 -82.14)" fill="#e4a23e"/><path d="M269.2,120H255v28.4l7.1,3.155,7.1-3.155Z" transform="translate(-174.563 -82.14)" fill="#e08450"/><path d="M218.458,0V6l-5.2-3-4.733,8.2,5.2,3-5.2,3,4.733,8.2,9.929-5.733,3.155-9.831L223.191,0h-4.733Z" transform="translate(-142.754 0)" fill="#de784c"/><path d="M269.662,17.2l-5.2-3,5.2-3L264.929,3l-5.2,3V0H255V19.662l9.929,5.733Z" transform="translate(-174.563 0)" fill="#d7445a"/><path d="M135,210l37.86,56.79,3.155-28.4L172.86,210Z" transform="translate(-92.424 -143.745)" fill="#ebf4fa"/><path d="M255,210v56.79L292.86,210Z" transform="translate(-174.563 -143.745)" fill="#c7deee"/></svg>