<svg xmlns="http://www.w3.org/2000/svg" width="95.628" height="107.953" viewBox="0 0 95.628 107.953"><path d="M116.745,244.921l-10.4-3.732a3.041,3.041,0,0,0-1.091-.19H38.644a3.155,3.155,0,0,0-3.209,3.163V288.65a9.545,9.545,0,0,0,9.626,9.488h64.175a9.545,9.545,0,0,0,9.626-9.488V247.893A3.141,3.141,0,0,0,116.745,244.921Z" transform="translate(-34.803 -190.185)" fill="#fc1a40"/><path d="M272.149,247.893V288.65a9.545,9.545,0,0,1-9.626,9.488H230.435V241h28.109a3.039,3.039,0,0,1,1.091.19l10.4,3.732A3.141,3.141,0,0,1,272.149,247.893Z" transform="translate(-188.089 -190.185)" fill="#c60034"/><path d="M213.96,20.618A13.064,13.064,0,0,0,192.718,14.1l-7.445,6.452L183.8,10.877A12.847,12.847,0,0,0,175.9.947a12.322,12.322,0,0,0-2.5-.7,12.908,12.908,0,0,0-10.14,2.214A12.758,12.758,0,0,0,158,14.609a12.848,12.848,0,0,0,8.471,10.247l6.931,2.467,8.535,3.1H182L196.825,35.8a13.95,13.95,0,0,0,4.492.759,13.084,13.084,0,0,0,8.664-3.289A12.735,12.735,0,0,0,213.96,20.618Z" transform="translate(-131.056 0)" fill="#fe9923"/><path d="M267.015,34.206a13.084,13.084,0,0,1-8.664,3.289,13.952,13.952,0,0,1-4.492-.759l-14.824-5.376h-.064l-8.535-3.1V1.187a12.337,12.337,0,0,1,2.5.7,12.846,12.846,0,0,1,7.893,9.931l1.476,9.678,7.445-6.452a13.064,13.064,0,0,1,21.242,6.515A12.735,12.735,0,0,1,267.015,34.206Z" transform="translate(-188.09 -0.937)" fill="#fe8821"/><path d="M127.516,89.146l-4.364,11.892a3.25,3.25,0,0,1-3.016,2.024,3.039,3.039,0,0,1-1.091-.19L85.866,90.98l-3.016-9.8-8.022,1.771-7.059,1.581L34.59,72.636a3.206,3.206,0,0,1-1.925-4.048L37.093,56.7a9.324,9.324,0,0,1,4.942-5.377A9.627,9.627,0,0,1,49.414,51l25.414,9.108,1.733.632s6.931,12.4,7.123,12.4c.129,0,2.888-1.518,5.583-2.973s5.39-2.973,5.39-2.973l27.082,9.741a9.676,9.676,0,0,1,5.455,4.934A9.239,9.239,0,0,1,127.516,89.146Z" transform="translate(-32.482 -39.787)" fill="#ff3e75"/><path d="M283.123,125.432l-4.364,11.892a3.25,3.25,0,0,1-3.016,2.024,3.041,3.041,0,0,1-1.091-.19l-33.179-11.892-3.016-9.8-8.022,1.771V96.4l1.733.632s6.931,12.4,7.123,12.4c.129,0,2.888-1.518,5.583-2.973s5.391-2.973,5.391-2.973l27.082,9.741a9.676,9.676,0,0,1,5.455,4.934A9.239,9.239,0,0,1,283.123,125.432Z" transform="translate(-188.089 -76.074)" fill="#fc1a40"/><g transform="translate(32.719 20.958)"><path d="M185.435,241v57.139h19.252V241Z" transform="translate(-185.435 -211.143)" fill="#fcbf29"/><path d="M206.227,99.4l-1.733,4.681-7.059,19.1,7.059,2.53,8.022,2.846,3.016,1.075,8.792-23.783Z" transform="translate(-194.868 -99.398)" fill="#fcbf29"/></g><g transform="translate(42.345 20.958)"><rect width="9.626" height="57.139" transform="translate(0.001 29.856)" fill="#fe9923"/><path d="M250.265,105.85l-8.792,23.783-3.016-1.075-8.022-2.846V104.079l1.733-4.681Z" transform="translate(-230.435 -99.398)" fill="#fe9923"/></g></svg>