<svg xmlns="http://www.w3.org/2000/svg" width="111.602" height="104.653" viewBox="0 0 111.602 104.653"><path d="M251.568,17.154c-2.614,2.614-7.385,11.681-7.385,11.681l-.363-.163L228.7,21.852c-3.131-8.923-2.1-16.695,1-16.695,3.052,0,6.356,7.572,6.46,7.809-.043-.287-1.74-11.486,3.361-11.486,2.333,0,3.612,1.752,4.315,3.675a16.439,16.439,0,0,1,.853,4.93s3.867-8.787,8.526-7.495S254.183,14.54,251.568,17.154Z" transform="translate(-181.956 2.509)" fill="#95d6a4"/><path d="M243.02,25.621a7.472,7.472,0,0,1,.8,3.052L228.7,21.852c-3.131-8.923-2.1-16.695,1-16.695,3.052,0,6.356,7.572,6.46,7.809-.043-.287-1.74-11.486,3.361-11.486,2.333,0,3.612,1.752,4.315,3.675l0,0C242.05,1.48,236.816,12.08,243.02,25.621Z" transform="translate(-181.956 2.509)" fill="#78c2a4"/><g transform="translate(30.909 0)"><ellipse cx="37.72" cy="19.347" rx="37.72" ry="19.347" transform="translate(0 53.336) rotate(-45)" fill="#e49542"/><g transform="translate(10.377 10.36)"><path d="M212.084,90.352C204.529,82.8,210.346,64.73,225.075,50s32.8-20.547,40.353-12.992c-3.181-3.181-17.7,6.183-32.432,20.913S208.9,87.171,212.084,90.352Z" transform="translate(-208.774 -33.698)" fill="#e28424"/><path d="M388.262,96.944l-11.1-11.1a3.274,3.274,0,0,0-4.63,4.63l11.1,11.1a3.274,3.274,0,1,0,4.63-4.63Z" transform="translate(-339.379 -74.763)" fill="#e28424"/><path d="M324.086,161.12l-11.1-11.1a3.274,3.274,0,0,0-4.63,4.63l11.1,11.1a3.274,3.274,0,0,0,4.63-4.63Z" transform="translate(-287.894 -126.248)" fill="#e28424"/></g></g><g transform="translate(9.702 4.164)"><path d="M84.428,38.974a96.228,96.228,0,0,1-1.3,11.04,5.006,5.006,0,0,1-3,3.691c-1.4.583-2.907,1.55-2.907,3a3.075,3.075,0,0,0,.255,1.251H56.021a3.075,3.075,0,0,0,.255-1.251c0-1.454-1.507-2.422-2.907-3a5,5,0,0,1-3-3.691,95.885,95.885,0,0,1-1.3-11.04,4.944,4.944,0,0,1,.64-2.775C53.3,29.953,60.574,26.007,60.574,26.007V15.964H72.926V26.007S80.2,29.954,83.788,36.2a4.928,4.928,0,0,1,.64,2.774Z" transform="translate(-49.06 -13.275)" fill="#80b4fb"/><path d="M107.285,32.189h12.352v3.653H107.285Z" transform="translate(-95.771 -26.291)" fill="#61a2f9"/><path d="M64.033,29.575v7.35A23.867,23.867,0,0,0,56.66,47.119a7.791,7.791,0,0,0-.379,2.775c.083,2.229.3,6.788.77,11.04a5.214,5.214,0,0,0,1.776,3.691,3.67,3.67,0,0,1,1.719,3A4.9,4.9,0,0,1,60.4,68.88H56.021a3.075,3.075,0,0,0,.255-1.251c0-1.454-1.507-2.422-2.907-3a5,5,0,0,1-3-3.691,95.484,95.484,0,0,1-1.3-11.04,4.924,4.924,0,0,1,.64-2.775C53.3,40.873,60.574,36.925,60.574,36.925V31.2Z" transform="translate(-49.06 -24.194)" fill="#61a2f9"/><path d="M113.084,2.366h-9.5A2.689,2.689,0,0,0,100.9,5.054V9.368h14.878V5.054a2.689,2.689,0,0,0-2.688-2.688Z" transform="translate(-90.644 -2.366)" fill="#db5c6e"/><path d="M108.912,2.37a2.688,2.688,0,0,0-2.689,2.687V9.371H100.9V5.057a2.688,2.688,0,0,1,2.689-2.687Z" transform="translate(-90.644 -2.369)" fill="#d64553"/></g><path d="M119.03,274.62s-.09,2.97-.385,7.591a265,265,0,0,1-2.917,26.363,15.234,15.234,0,0,1-15.008,12.7h-53a15.234,15.234,0,0,1-15.008-12.7A265,265,0,0,1,29.8,282.211c-.3-4.62-.385-7.591-.385-7.591Z" transform="translate(-23.597 -216.617)" fill="#db5c6e"/><path d="M119.029,274.62s-.09,2.97-.385,7.591a7.58,7.58,0,0,1-1.45.169q-42.974.825-85.945,0a7.592,7.592,0,0,1-1.451-.169c-.3-4.62-.385-7.591-.385-7.591Z" transform="translate(-23.596 -216.617)" fill="#d64553"/><path d="M54.272,321.27H47.724a15.234,15.234,0,0,1-15.008-12.7,285.745,285.745,0,0,1-3.3-33.954H40.486s.405,17.744,2.485,33.954C43.913,315.9,48.676,321.27,54.272,321.27Z" transform="translate(-23.597 -216.617)" fill="#d64553"/><path d="M180.085,105.446a163.869,163.869,0,0,0-31.03-.391c-1.374.113-1.887,1.1-3.261,1.252-1.289,11.453-2.149,22.046-.86,33.5a163.925,163.925,0,0,0,35.151,0A153.146,153.146,0,0,0,180.085,105.446Z" transform="translate(-115.762 -80.14)" fill="#ededed"/><path d="M147.718,142.443q-2.059-.168-4.121-.391a153.064,153.064,0,0,1,0-34.359q2.059-.22,4.121-.391A162.146,162.146,0,0,0,147.718,142.443Z" transform="translate(-114.424 -82.386)" fill="#dbdbdb"/><path d="M93.6,214.477q-42.972.826-85.943,0a7.613,7.613,0,0,1-7.311-6.1,16.782,16.782,0,0,1,0-6.739,7.612,7.612,0,0,1,7.311-6.1q42.972-.826,85.943,0a7.613,7.613,0,0,1,7.311,6.1,16.783,16.783,0,0,1,0,6.739A7.613,7.613,0,0,1,93.6,214.477Z" transform="translate(-0.001 -152.85)" fill="#ffd064"/><path d="M14.975,215.766q-3.661-.055-7.324-.126a7.611,7.611,0,0,1-7.31-6.1,16.755,16.755,0,0,1,0-6.739,7.609,7.609,0,0,1,7.31-6.1q3.661-.07,7.324-.126a7.894,7.894,0,0,0-5.832,6.093,17.354,17.354,0,0,0,0,6.994A7.9,7.9,0,0,0,14.975,215.766Z" transform="translate(0.001 -154.013)" fill="#ffc250"/><g transform="translate(25.332 70.325)"><path d="M133.191,336.932h-.1a4.945,4.945,0,0,0-4.9,4.805q-.186,6.2,0,12.395a4.945,4.945,0,0,0,4.9,4.805h.1a4.945,4.945,0,0,0,4.9-4.805q.186-6.2,0-12.395A4.945,4.945,0,0,0,133.191,336.932Z" transform="translate(-128.098 -336.932)" fill="#365e7d"/><path d="M235.58,336.932h-.1a4.945,4.945,0,0,0-4.9,4.805q-.186,6.2,0,12.395a4.945,4.945,0,0,0,4.9,4.805h.1a4.945,4.945,0,0,0,4.9-4.805q.186-6.2,0-12.395A4.945,4.945,0,0,0,235.58,336.932Z" transform="translate(-210.239 -336.932)" fill="#365e7d"/><path d="M337.969,336.932h-.1a4.945,4.945,0,0,0-4.9,4.805q-.186,6.2,0,12.395a4.945,4.945,0,0,0,4.9,4.805h.1a4.945,4.945,0,0,0,4.9-4.805q.186-6.2,0-12.395A4.945,4.945,0,0,0,337.969,336.932Z" transform="translate(-292.38 -336.932)" fill="#365e7d"/></g><g transform="translate(2.905 48.111)"><g transform="translate(0 0.001)"><path d="M36.838,225.958a15.057,15.057,0,0,0-3.368-1.226,5.016,5.016,0,0,0-5.788,3.082q-6.8,17.324-12.726,34.965a5.016,5.016,0,0,0,2.453,6.081,15.058,15.058,0,0,0,3.368,1.226A5.016,5.016,0,0,0,26.564,267q6.8-17.324,12.726-34.965A5.016,5.016,0,0,0,36.838,225.958Z" transform="translate(-14.69 -224.602)" fill="#407093"/><path d="M18.8,269.48a14.733,14.733,0,0,1-1.4-.62,5.014,5.014,0,0,1-2.452-6.08q5.929-17.64,12.726-34.965a5.016,5.016,0,0,1,5.787-3.082,14.657,14.657,0,0,1,1.465.425,5.275,5.275,0,0,0-3.546,3.173Q24.3,246.387,18.124,264.766A5.272,5.272,0,0,0,18.8,269.48Z" transform="translate(-14.688 -224.603)" fill="#365e7d"/></g><g transform="translate(70.575)"><path d="M377.662,224.728a15.05,15.05,0,0,0-3.368,1.226,5.017,5.017,0,0,0-2.453,6.081q5.928,17.641,12.726,34.965a5.016,5.016,0,0,0,5.788,3.082,15.048,15.048,0,0,0,3.368-1.226,5.016,5.016,0,0,0,2.453-6.081q-5.928-17.641-12.726-34.965A5.016,5.016,0,0,0,377.662,224.728Z" transform="translate(-371.576 -224.598)" fill="#407093"/><path d="M391.824,272.658a14.736,14.736,0,0,1-1.469.424A5.014,5.014,0,0,1,384.567,270q-6.8-17.324-12.726-34.965a5.016,5.016,0,0,1,2.452-6.08,14.686,14.686,0,0,1,1.4-.616,5.275,5.275,0,0,0-.677,4.71q6.18,18.384,13.261,36.436A5.271,5.271,0,0,0,391.824,272.658Z" transform="translate(-371.575 -227.599)" fill="#365e7d"/></g></g><path d="M110.646,33.241H96.35a1.483,1.483,0,0,1,0-2.966h14.3a1.483,1.483,0,0,1,0,2.966Z" transform="translate(-76.107 -20.592)" fill="#db5c6e"/><path d="M100.8,33.241H96.35a1.483,1.483,0,0,1,0-2.966H100.8a1.483,1.483,0,1,0,0,2.966Z" transform="translate(-76.107 -20.592)" fill="#d64553"/></svg>