<svg xmlns="http://www.w3.org/2000/svg" width="264" height="77.684" viewBox="0 0 264 77.684"><g transform="translate(-1853.77 -907.021)"><g transform="translate(1950.971 928.127)"><g transform="translate(0 0)"><path d="M2120.69,984.928l-.3-.484a11.2,11.2,0,0,0-.874-1.236,12.713,12.713,0,0,0-.864-.95,2.067,2.067,0,0,0-.179-.167,13.066,13.066,0,0,0-21.972,7.071c-.037.2-.074.395-.092.564-.027.144-.041.277-.052.41a12.03,12.03,0,0,0-.073,1.338,13.151,13.151,0,0,0,.647,4.08,10.843,10.843,0,0,0,.557,1.4c.064.158.141.309.218.458l.1.2c.073.133.147.266.258.435a2.02,2.02,0,0,0,.162.254,13.055,13.055,0,0,0,19.369,3.329,13.322,13.322,0,0,0,2.677-2.941l.306-.46-3.271-2.368-.329.511a9.049,9.049,0,0,1-15.039.281l15.84-9.893Zm-20.276,7.936a9.181,9.181,0,0,1-.107-1.39,9.065,9.065,0,0,1,14.235-7.444Z" transform="translate(-2096.287 -970.892)" fill="#fff"/><path d="M2321.057,984.928l-.3-.484a11.264,11.264,0,0,0-.874-1.236,12.831,12.831,0,0,0-.865-.95,1.861,1.861,0,0,0-.18-.167,13.066,13.066,0,0,0-21.98,7.115c-.034.183-.067.367-.083.52s-.04.277-.053.41a12.149,12.149,0,0,0-.073,1.338,13.144,13.144,0,0,0,.647,4.08,11.137,11.137,0,0,0,.556,1.4c.064.155.14.3.217.45l.106.2c.073.133.147.266.259.436a1.856,1.856,0,0,0,.16.253,13.054,13.054,0,0,0,19.369,3.329,13.251,13.251,0,0,0,2.677-2.941l.306-.46-3.27-2.368-.329.511a9.049,9.049,0,0,1-15.039.281l15.839-9.893Zm-20.276,7.936a9.181,9.181,0,0,1-.107-1.39,9.065,9.065,0,0,1,14.235-7.444Z" transform="translate(-2216.347 -970.892)" fill="#fff"/><path d="M2178.095,982.412a9.026,9.026,0,0,1,7.626,4.169l.307.475,3.4-2.117-.3-.487a12.224,12.224,0,0,0-1.747-2.193,13.074,13.074,0,0,0-22.153,6.9c-.037.2-.073.392-.093.569-.024.14-.038.27-.052.4a12.093,12.093,0,0,0-.072,1.338,13.069,13.069,0,0,0,1.5,6.1,4.277,4.277,0,0,0,.223.378,13.068,13.068,0,0,0,19.586,3.674,13.352,13.352,0,0,0,2.677-2.941l.306-.46-3.271-2.368-.328.511a9.058,9.058,0,1,1-7.614-13.955Z" transform="translate(-2137.467 -970.892)" fill="#fff"/><path d="M2412.494,989.768c-.025-.209-.06-.405-.1-.594a12.883,12.883,0,0,0-1.542-4.213l.016-.009-.307-.5c-.035-.057-.075-.112-.173-.247-.119-.176-.242-.35-.4-.563-.134-.18-.266-.355-.406-.525-.074-.09-.153-.175-.231-.261l-.243-.271c-.1-.111-.191-.222-.294-.324-.178-.18-.368-.347-.559-.515,0,0-.256-.233-.3-.273-.109-.091-.222-.178-.334-.263l-.205-.157c-.141-.109-.281-.218-.429-.32-.115-.08-.233-.153-.434-.28s-.4-.251-.6-.369c-.143-.081-.29-.156-.433-.229q-.325-.17-.661-.321c-.148-.066-.3-.129-.445-.188-.232-.093-.468-.18-.735-.269-.14-.047-.28-.095-.425-.138-.25-.074-.5-.135-.761-.2,0,0-.343-.082-.446-.1-.278-.054-.562-.093-.849-.13,0,0-.305-.044-.39-.052-.394-.038-.793-.062-1.2-.064h-.154c-.4,0-.8.026-1.2.064-.085.009-.393.052-.393.052-.285.037-.569.076-.847.13-.105.02-.45.1-.45.1-.255.061-.508.123-.758.2-.152.045-.3.1-.453.146-.238.081-.475.167-.7.259-.153.06-.3.123-.452.191-.223.1-.443.206-.655.318-.148.075-.3.151-.439.232-.207.117-.4.241-.671.412-.123.077-.246.155-.364.236-.145.1-.283.205-.508.38l-.114.087c-.118.089-.235.177-.349.273l-.331.3c-.181.16-.362.32-.53.489-.1.1-.2.214-.3.325l-.141.16s-.257.282-.332.371c-.152.185-.3.376-.437.569-.126.171-.249.345-.424.6a1.824,1.824,0,0,0-.114.163l-.3.5.009.006a12.848,12.848,0,0,0-1.54,4.205c-.037.2-.074.4-.092.564-.027.146-.041.277-.052.41a12.126,12.126,0,0,0-.073,1.339,13.082,13.082,0,0,0,1.518,6.12,3.559,3.559,0,0,0,.211.353c.051.091.107.18.165.266l-.02.014.3.455a2.175,2.175,0,0,0,.171.222l.086.11c.213.3.44.584.676.866l.094.111c.122.147.246.293.376.431a12.93,12.93,0,0,0,.966.913l.1.1a2.707,2.707,0,0,0,.206.192l.341.256a13.843,13.843,0,0,0,1.168.792l.152.094a13.251,13.251,0,0,0,1.328.674l.3.123a13.5,13.5,0,0,0,1.363.475l.126.039a12.721,12.721,0,0,0,1.505.311l.356.047a11.771,11.771,0,0,0,3.188,0l.361-.048a12.691,12.691,0,0,0,1.5-.311l.188-.058a13.562,13.562,0,0,0,1.382-.489l.22-.091a13.151,13.151,0,0,0,1.327-.674l.241-.15c.372-.229.73-.473,1.154-.793l.264-.2a2.477,2.477,0,0,0,.2-.188l.1-.1a12.85,12.85,0,0,0,.969-.915c.129-.138.25-.282.371-.426l.1-.117c.236-.281.462-.565.674-.863l.087-.111a2.452,2.452,0,0,0,.169-.22l.245-.415c.067-.1.129-.2.174-.278a4.4,4.4,0,0,0,.253-.426,13.045,13.045,0,0,0,1.5-6.092,12.135,12.135,0,0,0-.071-1.332C2412.528,990.007,2412.516,989.878,2412.494,989.768Zm-5.363,6.625a9.121,9.121,0,0,1-1.322,1.6l-.241.219c-.172.154-.348.3-.573.473-.084.064-.168.129-.253.19-.2.138-.4.265-.606.388l-.256.156a8.718,8.718,0,0,1-.891.425c-.058.024-.306.111-.306.111-.219.082-.443.159-.674.224-.121.035-.244.065-.368.094-.231.056-.464.1-.813.156l-.228.034a8.319,8.319,0,0,1-2.138,0l-.341-.054c-.237-.037-.471-.081-.7-.137-.124-.029-.246-.06-.369-.1-.229-.064-.452-.141-.673-.223l-.308-.112a8.9,8.9,0,0,1-.888-.425l-.255-.155c-.205-.123-.41-.25-.6-.387-.087-.061-.172-.127-.3-.222-.182-.141-.36-.288-.607-.509l-.16-.147a9.1,9.1,0,0,1-1.327-1.6,9,9,0,0,1,.025-9.873,9.186,9.186,0,0,1,.6-.817l-.442-.365h0l.53.269q.287-.335.6-.64l.247-.224c.174-.156.355-.306.572-.473.08-.061.158-.121.241-.18.217-.154.441-.3.667-.428l.194-.119a9.565,9.565,0,0,1,.917-.44l.242-.087c.243-.092.492-.176.747-.249.11-.031.222-.058.332-.085.241-.059.486-.106.846-.161l.208-.032a9.214,9.214,0,0,1,1.073-.069h.007a9.2,9.2,0,0,1,1.072.069l.322.049c.248.038.493.085.73.143.112.028.225.055.337.087.254.072.5.156.747.249l.235.085a9.041,9.041,0,0,1,1,.489l.11.067c.23.136.455.278.672.433.092.064.181.132.273.2.187.142.366.292.536.445l.249.226c.211.2.413.416.6.639l.437-.372-.347.47a9.024,9.024,0,0,1,.621,10.69Z" transform="translate(-2270.151 -970.895)" fill="#fff"/><path d="M2252.962,969.195a8.6,8.6,0,0,0-4.808-1.381,10.061,10.061,0,0,0-4.86,1.221,12.046,12.046,0,0,0-3.032,2.4V959.679h-4.054v32.443h4.054v-8.855a29.532,29.532,0,0,1,.4-6,7.643,7.643,0,0,1,2.561-4.019,6.549,6.549,0,0,1,4.353-1.61,5.276,5.276,0,0,1,3.368,1.007,5.378,5.378,0,0,1,1.76,3.056,27.432,27.432,0,0,1,.295,5.075v11.345h4.054v-12.2a18.659,18.659,0,0,0-.98-7.024A8.275,8.275,0,0,0,2252.962,969.195Z" transform="translate(-2180.128 -959.679)" fill="#fff"/><rect width="4.054" height="32.442" transform="translate(109.185 0)" fill="#fff"/><path d="M2480.313,985.075a8.275,8.275,0,0,0-3.108-3.718,8.6,8.6,0,0,0-4.808-1.381,10.106,10.106,0,0,0-4.881,1.221,11.835,11.835,0,0,0-3.011,2.393v-3.033h-4.054v23.727h4.054v-8.854a29.717,29.717,0,0,1,.4-6,7.642,7.642,0,0,1,2.562-4.019,6.547,6.547,0,0,1,4.354-1.61,5.32,5.32,0,0,1,3.379,1.008,5.2,5.2,0,0,1,1.735,3.059,26.4,26.4,0,0,1,.306,5.07v11.345h4.054v-12.2A18.69,18.69,0,0,0,2480.313,985.075Z" transform="translate(-2314.493 -971.841)" fill="#fff"/><g transform="translate(2.775 41.196)"><path d="M2103.211,1073.761V1063.13h2.2a11.243,11.243,0,0,1,3.462.383,4.626,4.626,0,0,1,2.417,1.879,5.709,5.709,0,0,1,.871,3.187,5.586,5.586,0,0,1-.691,2.811,4.419,4.419,0,0,1-1.793,1.792,6.745,6.745,0,0,1-3.089.578Zm1.019-1h1.228a11.461,11.461,0,0,0,3.057-.274,3.528,3.528,0,0,0,1.887-1.4,4.322,4.322,0,0,0,.687-2.481,4.549,4.549,0,0,0-.744-2.628,3.749,3.749,0,0,0-2.074-1.495,12.553,12.553,0,0,0-3.288-.3h-.752Z" transform="translate(-2103.211 -1062.863)" fill="#fff"/><path d="M2135.547,1063.13h6.093v1.041h-5.031v3.331h4.987v1.041h-4.987v4.177h4.987v1.041h-6.049Z" transform="translate(-2122.587 -1062.863)" fill="#fff"/><path d="M2160.166,1063.13h1.062v9.6h4.091v1.026h-5.153Z" transform="translate(-2137.338 -1062.863)" fill="#fff"/><path d="M2181.683,1063.13h1.062v10.631h-1.062Z" transform="translate(-2150.231 -1062.863)" fill="#fff"/><path d="M2193.229,1063.13h1.156l3.523,8.214,3.581-8.214h1.157l-4.625,10.631h-.231Z" transform="translate(-2157.15 -1062.863)" fill="#fff"/><path d="M2226.034,1063.13h6.092v1.041h-5.03v3.331h4.987v1.041H2227.1v4.177h4.987v1.041h-6.049Z" transform="translate(-2176.806 -1062.863)" fill="#fff"/><path d="M2250.8,1063.13h2.117a12.822,12.822,0,0,1,2.4.145,2.734,2.734,0,0,1,1.539.93,2.652,2.652,0,0,1,.593,1.755,2.839,2.839,0,0,1-.408,1.527,2.544,2.544,0,0,1-1.167.995,5.357,5.357,0,0,1-2.1.344l3.823,4.936h-1.314l-3.823-4.936h-.6v4.936H2250.8Zm1.062,1.041v3.613l1.831.015a4.547,4.547,0,0,0,1.574-.2,1.639,1.639,0,0,0,.8-.647,1.8,1.8,0,0,0,.286-.994,1.726,1.726,0,0,0-.29-.972,1.615,1.615,0,0,0-.76-.625,4.627,4.627,0,0,0-1.563-.187Z" transform="translate(-2191.644 -1062.863)" fill="#fff"/><path d="M2275.812,1063.13h1.222l2.72,4.384,2.678-4.384h1.229l-3.368,5.551v5.081h-1.048v-5.081Z" transform="translate(-2206.633 -1062.863)" fill="#fff"/><path d="M2316.917,1071.381l.9-.542q.954,1.756,2.2,1.756a2.11,2.11,0,0,0,1.005-.249,1.761,1.761,0,0,0,.715-.669,1.732,1.732,0,0,0,.246-.889,1.806,1.806,0,0,0-.362-1.048,8.658,8.658,0,0,0-1.822-1.706,9.292,9.292,0,0,1-1.655-1.453,2.657,2.657,0,0,1-.564-1.626,2.469,2.469,0,0,1,.333-1.265,2.371,2.371,0,0,1,.936-.9,2.7,2.7,0,0,1,1.312-.329,2.8,2.8,0,0,1,1.406.372,4.831,4.831,0,0,1,1.384,1.37l-.867.658a4.154,4.154,0,0,0-1.023-1.048,1.757,1.757,0,0,0-.921-.253,1.457,1.457,0,0,0-1.051.39,1.276,1.276,0,0,0-.409.961,1.633,1.633,0,0,0,.145.672,2.481,2.481,0,0,0,.528.709q.208.2,1.373,1.062a7.745,7.745,0,0,1,1.894,1.814,2.926,2.926,0,0,1,.513,1.6,2.71,2.71,0,0,1-.878,2.009,2.95,2.95,0,0,1-2.135.853,3.135,3.135,0,0,1-1.756-.517A4.72,4.72,0,0,1,2316.917,1071.381Z" transform="translate(-2231.263 -1062.463)" fill="#fff"/><path d="M2342.906,1063.13H2349v1.041h-5.03v3.331h4.987v1.041h-4.987v4.177h4.987v1.041h-6.049Z" transform="translate(-2246.836 -1062.863)" fill="#fff"/><path d="M2367.669,1063.13h2.117a12.824,12.824,0,0,1,2.4.145,2.736,2.736,0,0,1,1.539.93,2.654,2.654,0,0,1,.593,1.755,2.839,2.839,0,0,1-.409,1.527,2.543,2.543,0,0,1-1.167.995,5.361,5.361,0,0,1-2.1.344l3.823,4.936h-1.314l-3.823-4.936h-.6v4.936h-1.062Zm1.062,1.041v3.613l1.832.015a4.548,4.548,0,0,0,1.574-.2,1.637,1.637,0,0,0,.8-.647,1.8,1.8,0,0,0,.286-.994,1.724,1.724,0,0,0-.29-.972,1.615,1.615,0,0,0-.76-.625,4.628,4.628,0,0,0-1.563-.187Z" transform="translate(-2261.674 -1062.863)" fill="#fff"/><path d="M2392.756,1063.13h1.156l3.524,8.214,3.581-8.214h1.157l-4.625,10.631h-.231Z" transform="translate(-2276.706 -1062.863)" fill="#fff"/><path d="M2425.164,1063.13h1.063v10.631h-1.062Z" transform="translate(-2296.125 -1062.863)" fill="#fff"/><path d="M2447.9,1064.7l-.838.643a4.592,4.592,0,0,0-1.666-1.37,4.879,4.879,0,0,0-2.136-.466,4.715,4.715,0,0,0-2.355.611,4.379,4.379,0,0,0-1.681,1.641,4.536,4.536,0,0,0-.6,2.316,4.346,4.346,0,0,0,1.333,3.245,4.62,4.62,0,0,0,3.365,1.3,4.732,4.732,0,0,0,3.736-1.749l.838.636a5.363,5.363,0,0,1-1.984,1.565,6.225,6.225,0,0,1-2.656.553,5.525,5.525,0,0,1-4.4-1.857,5.6,5.6,0,0,1-1.351-3.787,5.265,5.265,0,0,1,1.637-3.928,5.642,5.642,0,0,1,4.1-1.594,6.022,6.022,0,0,1,2.689.589A5.22,5.22,0,0,1,2447.9,1064.7Z" transform="translate(-2303.519 -1062.463)" fill="#fff"/><path d="M2473.609,1063.13h6.093v1.041h-5.03v3.331h4.987v1.041h-4.987v4.177h4.987v1.041h-6.049Z" transform="translate(-2325.153 -1062.863)" fill="#fff"/><path d="M2495.487,1071.381l.9-.542q.954,1.756,2.2,1.756a2.108,2.108,0,0,0,1-.249,1.76,1.76,0,0,0,.716-.669,1.732,1.732,0,0,0,.246-.889,1.8,1.8,0,0,0-.362-1.048,8.656,8.656,0,0,0-1.821-1.706,9.292,9.292,0,0,1-1.655-1.453,2.658,2.658,0,0,1-.563-1.626,2.468,2.468,0,0,1,.332-1.265,2.371,2.371,0,0,1,.936-.9,2.7,2.7,0,0,1,1.312-.329,2.792,2.792,0,0,1,1.405.372,4.825,4.825,0,0,1,1.384,1.37l-.868.658a4.15,4.15,0,0,0-1.022-1.048,1.758,1.758,0,0,0-.921-.253,1.459,1.459,0,0,0-1.051.39,1.276,1.276,0,0,0-.409.961,1.623,1.623,0,0,0,.145.672,2.469,2.469,0,0,0,.527.709q.209.2,1.373,1.062a7.732,7.732,0,0,1,1.893,1.814,2.925,2.925,0,0,1,.514,1.6,2.709,2.709,0,0,1-.879,2.009,2.95,2.95,0,0,1-2.135.853,3.137,3.137,0,0,1-1.756-.517A4.729,4.729,0,0,1,2495.487,1071.381Z" transform="translate(-2338.262 -1062.463)" fill="#fff"/></g></g></g><g transform="translate(1853.77 907.021)"><g transform="translate(24.069 13.122)"><path d="M1936.742,985.484a2.713,2.713,0,0,1-2.65-2.15l-3.546-16.685-13.39-4.814a5.038,5.038,0,0,1-2.032-8.121l11.82-13.06a2.714,2.714,0,1,1,4.024,3.643l-11.429,12.629,15.688,5.639,4.171,19.642a2.709,2.709,0,0,1-2.09,3.217A2.682,2.682,0,0,1,1936.742,985.484Z" transform="translate(-1913.822 -939.761)" fill="#fff"/></g><g transform="translate(0 14.089)"><path d="M1899.632,994.277a19.351,19.351,0,0,1-4.9-.636,80.411,80.411,0,0,0-8.785-1.664,277.982,277.982,0,0,0-29.374-2.065l-2.806-.037.131-2.8a20.871,20.871,0,0,1,7.644-14.269c6.3-5.042,15.562-6.533,27.527-4.43l2.625.461-.415,2.632c-.943,6-1.675,11.875-2.1,15.51,2.634.426,4.955.9,6.921,1.413,9.322,2.424,17.155-5.828,19.729-8.956l-8.884-20.51-10.831-2.615-7.937-10.953,4.4-3.184,6.761,9.331,5.533,1.335,4.51-1.955,4.182,9.635-.009,0,8.493,19.607-.853,1.238C1920.785,981.952,1912.125,994.277,1899.632,994.277Zm-39.753-9.718c4.939.143,14.728.551,23.926,1.666.369-3.146.956-7.869,1.7-12.912-9.011-1.187-15.906.037-20.5,3.672A15.29,15.29,0,0,0,1859.879,984.559Z" transform="translate(-1853.77 -942.174)" fill="#fff"/></g><g transform="translate(62.269 57.127)"><path d="M2019.411,1070.11a10.274,10.274,0,0,1-10-12.647h0a10.276,10.276,0,1,1,10,12.647Zm-.012-16.938a6.663,6.663,0,0,0-6.467,5.125h0a6.659,6.659,0,1,0,8.015-4.945A6.806,6.806,0,0,0,2019.4,1053.173Z" transform="translate(-2009.131 -1049.554)" fill="#fff"/></g><g transform="translate(3.924 56.783)"><path d="M1873.86,1069.254a10.3,10.3,0,0,1-10.02-12.65h0a10.271,10.271,0,1,1,10.02,12.65Zm-6.5-11.816a6.658,6.658,0,1,0,8.015-4.945,6.618,6.618,0,0,0-8.015,4.945Z" transform="translate(-1863.562 -1048.694)" fill="#fff"/></g><g transform="translate(40.125)"><path d="M1967.536,913.223a15.175,15.175,0,0,0-1.591,1.773,11.81,11.81,0,0,0-2.352,5.083,6.844,6.844,0,0,1-9.569-4.83,6.844,6.844,0,0,1,13.4-2.768A5.142,5.142,0,0,1,1967.536,913.223Z" transform="translate(-1953.882 -907.021)" fill="#fff"/></g><g transform="translate(6.646 2.604)"><path d="M1897.191,925.351l-13.755,15.662a2.837,2.837,0,0,1-3.984.255l-8.139-7.164a2.819,2.819,0,0,1-.254-3.984l13.755-15.642a2.82,2.82,0,0,1,3.984-.254l8.139,7.142A2.822,2.822,0,0,1,1897.191,925.351Z" transform="translate(-1870.353 -913.518)" fill="#fff"/></g></g></g></svg>