<svg xmlns="http://www.w3.org/2000/svg" width="161.777" height="113.026" viewBox="0 0 161.777 113.026"><g transform="translate(0 0)"><g transform="translate(44.336 0)"><g transform="translate(21.341 11.634)"><path d="M683.689,662.289a2.4,2.4,0,0,1-2.349-1.9L678.2,645.591l-11.873-4.269a4.467,4.467,0,0,1-1.8-7.2L675,622.542a2.406,2.406,0,0,1,3.568,3.229l-10.133,11.2,13.911,5,3.7,17.416a2.4,2.4,0,0,1-1.853,2.853A2.3,2.3,0,0,1,683.689,662.289Z" transform="translate(-663.367 -621.75)" fill="#f9121b"/></g><g transform="translate(0 12.493)"><path d="M693.139,668.384a17.14,17.14,0,0,1-4.342-.562,71.226,71.226,0,0,0-7.79-1.477,246.7,246.7,0,0,0-26.044-1.83l-2.488-.033L652.59,662a18.523,18.523,0,0,1,6.779-12.651c5.584-4.471,13.8-5.792,24.407-3.928l2.328.409-.368,2.333c-.837,5.323-1.485,10.529-1.863,13.752,2.335.378,4.395.8,6.136,1.254,8.266,2.147,15.212-5.169,17.494-7.943l-7.878-18.184-9.6-2.318-7.038-9.712,3.9-2.821,5.993,8.272,4.906,1.185,4-1.734,3.709,8.542-.008,0,7.529,17.384-.756,1.1C711.893,657.457,704.214,668.384,693.139,668.384Zm-35.247-8.615c4.379.125,13.058.488,21.213,1.475.329-2.788.848-6.975,1.513-11.448-7.99-1.052-14.1.033-18.178,3.256A13.549,13.549,0,0,0,657.891,659.769Z" transform="translate(-652.474 -622.188)" fill="#f9121b"/></g><g transform="translate(55.212 50.652)"><path d="M689.769,659.891a9.111,9.111,0,0,1-8.866-11.215h0a9.111,9.111,0,1,1,8.866,11.215Zm-.012-15.018a5.905,5.905,0,0,0-5.733,4.544h0a5.9,5.9,0,1,0,7.106-4.385A6.067,6.067,0,0,0,689.757,644.873Z" transform="translate(-680.654 -641.664)" fill="#f9121b"/></g><g transform="translate(3.48 50.346)"><path d="M663.382,659.737a9.125,9.125,0,0,1-8.885-11.215h0a9.109,9.109,0,1,1,8.885,11.215Zm-5.764-10.476a5.9,5.9,0,1,0,7.106-4.385,5.868,5.868,0,0,0-7.106,4.385Z" transform="translate(-654.25 -641.508)" fill="#f9121b"/></g><g transform="translate(35.578)"><g transform="translate(0)"><path d="M682.74,621.31a13.572,13.572,0,0,0-1.413,1.571,10.494,10.494,0,0,0-2.085,4.508,6.068,6.068,0,1,1,3.4-6.738A4.768,4.768,0,0,1,682.74,621.31Z" transform="translate(-670.633 -615.812)" fill="#f9121b"/></g></g><g transform="translate(5.94 2.352)"><path d="M679.186,627.539l-12.049,13.715a2.609,2.609,0,0,1-3.683.255L656.4,635.3a2.59,2.59,0,0,1-.235-3.683L668.214,617.9a2.606,2.606,0,0,1,3.683-.235l7.053,6.191A2.608,2.608,0,0,1,679.186,627.539Z" transform="translate(-655.506 -617.012)" fill="#f9121b"/></g></g><g transform="translate(0 80.383)"><path d="M719.2,641.45l-.286-.469a10.98,10.98,0,0,0-.848-1.2,12.23,12.23,0,0,0-.838-.922,2.05,2.05,0,0,0-.174-.162,12.671,12.671,0,0,0-21.31,6.858c-.035.192-.072.384-.09.547-.026.139-.038.269-.051.4a11.866,11.866,0,0,0-.07,1.3,12.748,12.748,0,0,0,.629,3.957,10.333,10.333,0,0,0,.539,1.355c.062.154.136.3.211.443l.1.194c.07.13.143.258.25.422a1.982,1.982,0,0,0,.157.245,12.661,12.661,0,0,0,18.785,3.229,12.859,12.859,0,0,0,2.6-2.853l.3-.445-3.173-2.3-.319.5a8.777,8.777,0,0,1-14.585.272l15.363-9.593Zm-19.665,7.7a8.792,8.792,0,0,1,13.7-8.568Z" transform="translate(-695.527 -627.837)" fill="#f9121b"/><path d="M767.878,641.45l-.288-.469a10.768,10.768,0,0,0-.848-1.2,12.165,12.165,0,0,0-.838-.922,1.951,1.951,0,0,0-.174-.162,12.672,12.672,0,0,0-21.318,6.9c-.032.178-.066.355-.08.5s-.04.269-.051.4a11.866,11.866,0,0,0-.07,1.3,12.744,12.744,0,0,0,.627,3.957,10.7,10.7,0,0,0,.539,1.358c.062.15.136.294.211.437l.1.2c.072.13.144.258.253.422a1.633,1.633,0,0,0,.155.245,12.683,12.683,0,0,0,21.38.376l.3-.445-3.171-2.3-.318.5a8.778,8.778,0,0,1-14.587.272l15.363-9.593Zm-19.667,7.7a8.994,8.994,0,0,1-.1-1.347,8.792,8.792,0,0,1,13.806-7.221Z" transform="translate(-666.319 -627.837)" fill="#f9121b"/><path d="M724.913,639.01a8.756,8.756,0,0,1,7.4,4.045l.3.461,3.3-2.054-.294-.472a11.8,11.8,0,0,0-1.693-2.126,12.68,12.68,0,0,0-21.486,6.694c-.037.19-.07.381-.091.552-.024.136-.037.262-.05.392a11.9,11.9,0,0,0-.069,1.3,12.67,12.67,0,0,0,1.459,5.915c.077.139.154.278.216.366a12.676,12.676,0,0,0,19,3.563,12.86,12.86,0,0,0,2.6-2.853l.3-.445-3.173-2.3-.318.5a8.785,8.785,0,1,1-7.386-13.536Z" transform="translate(-685.509 -627.837)" fill="#f9121b"/><path d="M791.287,646.141c-.024-.2-.059-.392-.093-.574a12.506,12.506,0,0,0-1.5-4.086l.014-.01-.3-.48c-.034-.056-.073-.109-.168-.24-.115-.171-.235-.339-.387-.546-.13-.174-.258-.346-.394-.51-.072-.086-.149-.17-.224-.253l-.237-.264c-.093-.107-.184-.214-.285-.314-.173-.174-.357-.336-.541-.5,0,0-.25-.227-.3-.266-.106-.088-.214-.173-.323-.254l-.2-.152c-.138-.106-.274-.211-.416-.31-.112-.077-.226-.149-.421-.272s-.384-.243-.586-.358c-.139-.078-.282-.15-.419-.222-.21-.109-.424-.213-.641-.31-.142-.064-.288-.125-.43-.182-.226-.091-.454-.174-.714-.262-.136-.045-.272-.091-.413-.133-.242-.072-.486-.131-.738-.19,0,0-.333-.08-.432-.1-.271-.053-.546-.09-.824-.127,0,0-.3-.042-.379-.051-.381-.037-.768-.059-1.16-.062h-.149c-.39,0-.778.026-1.16.062-.083.01-.381.051-.381.051-.277.037-.552.074-.822.127-.1.019-.435.1-.435.1-.248.059-.493.118-.736.192-.147.043-.293.091-.44.141-.23.078-.459.162-.678.251-.147.057-.293.12-.438.186-.216.1-.43.2-.635.307-.144.074-.286.147-.426.226-.2.114-.392.234-.651.4-.118.075-.237.15-.352.23-.141.1-.274.2-.493.368l-.11.085c-.115.086-.227.173-.339.266l-.32.288c-.176.155-.35.31-.514.474-.1.1-.194.208-.286.315l-.138.157s-.248.272-.322.36c-.147.179-.286.365-.424.552-.122.165-.242.333-.411.581a1.8,1.8,0,0,0-.112.159l-.294.488.01.006a12.446,12.446,0,0,0-1.494,4.078c-.035.19-.072.382-.09.547-.026.141-.04.269-.051.4a11.9,11.9,0,0,0-.07,1.3,12.694,12.694,0,0,0,1.472,5.936,3.42,3.42,0,0,0,.2.342c.05.088.1.175.16.258l-.019.014.291.44a1.971,1.971,0,0,0,.165.216l.085.107c.206.29.425.566.656.84l.091.107c.118.142.238.283.363.418a12.585,12.585,0,0,0,.938.886l.1.094c.064.064.13.128.2.186l.331.248a13.3,13.3,0,0,0,1.133.768l.147.091a12.627,12.627,0,0,0,1.288.654l.29.12a13.3,13.3,0,0,0,1.322.461l.122.038a12.136,12.136,0,0,0,1.459.3l.346.047a12.492,12.492,0,0,0,1.549.106,12.314,12.314,0,0,0,1.542-.106l.35-.047a12.071,12.071,0,0,0,1.459-.3l.182-.058a13.135,13.135,0,0,0,1.341-.474l.213-.088a12.449,12.449,0,0,0,1.286-.654l.234-.146c.362-.222.709-.459,1.12-.77l.256-.192a2.349,2.349,0,0,0,.2-.182l.1-.1a12.284,12.284,0,0,0,.939-.888c.126-.134.243-.273.36-.413l.1-.114c.229-.272.448-.549.654-.837l.085-.107c.057-.069.114-.139.165-.213l.237-.4c.066-.1.125-.19.168-.27a4.089,4.089,0,0,0,.246-.413A12.663,12.663,0,0,0,791.4,647.8a11.635,11.635,0,0,0-.069-1.291C791.319,646.373,791.308,646.248,791.287,646.141Zm-5.2,6.426a8.813,8.813,0,0,1-1.281,1.55l-.234.213c-.166.149-.338.291-.557.459-.082.062-.163.125-.245.184-.19.133-.387.256-.587.376l-.248.15a8.418,8.418,0,0,1-.864.413c-.058.024-.3.107-.3.107-.213.08-.43.155-.654.218-.117.035-.237.064-.357.093-.224.054-.45.1-.789.15l-.221.034a8.025,8.025,0,0,1-2.074,0l-.33-.051c-.23-.037-.458-.078-.683-.133-.12-.029-.238-.058-.357-.093-.222-.062-.44-.138-.653-.218l-.3-.109a8.505,8.505,0,0,1-.862-.411l-.246-.15c-.2-.12-.4-.243-.586-.376-.085-.059-.167-.122-.288-.214-.178-.138-.35-.28-.589-.494l-.155-.142a8.742,8.742,0,0,1-1.264-11.133,9.137,9.137,0,0,1,.579-.792l-.429-.354h0l.515.261c.186-.216.379-.424.584-.621l.238-.218c.169-.15.344-.3.555-.459.077-.058.154-.117.234-.173.21-.15.427-.288.646-.416l.189-.115a9.282,9.282,0,0,1,.888-.427l.235-.085c.237-.09.478-.171.725-.242.107-.03.216-.056.322-.082.235-.058.472-.1.821-.157l.2-.031a8.594,8.594,0,0,1,1.04-.069h.006a8.621,8.621,0,0,1,1.04.069l.312.048c.24.037.477.082.709.138.109.027.218.053.326.085.247.069.485.15.723.242l.229.083a8.468,8.468,0,0,1,.971.474l.106.066c.224.131.442.269.653.419.088.063.174.13.264.2.181.138.355.283.52.432l.242.219q.307.3.584.619l.424-.36-.338.456a8.75,8.75,0,0,1,.6,10.368Z" transform="translate(-653.23 -627.836)" fill="#f9121b"/><path d="M745.772,639.794a8.336,8.336,0,0,0-4.664-1.339,9.754,9.754,0,0,0-4.714,1.184,11.7,11.7,0,0,0-2.941,2.331v-11.4h-3.931V662.03h3.931v-8.589a28.6,28.6,0,0,1,.386-5.818,7.42,7.42,0,0,1,2.483-3.9,6.358,6.358,0,0,1,4.222-1.56,5.118,5.118,0,0,1,3.266.976,5.21,5.21,0,0,1,1.707,2.963,26.507,26.507,0,0,1,.286,4.923v11h3.933V650.2a18.084,18.084,0,0,0-.952-6.813A8.03,8.03,0,0,0,745.772,639.794Z" transform="translate(-675.13 -630.565)" fill="#f9121b"/><rect width="3.932" height="31.466" transform="translate(105.898 0)" fill="#f9121b"/><path d="M803.269,640.442a8.02,8.02,0,0,0-3.014-3.606,8.331,8.331,0,0,0-4.662-1.339,9.8,9.8,0,0,0-4.736,1.184,11.485,11.485,0,0,0-2.92,2.322v-2.942H784v23.013h3.931v-8.589a28.8,28.8,0,0,1,.385-5.818,7.414,7.414,0,0,1,2.485-3.9,6.356,6.356,0,0,1,4.222-1.56,5.159,5.159,0,0,1,3.278.978,5.043,5.043,0,0,1,1.683,2.966,25.629,25.629,0,0,1,.3,4.918v11h3.933V647.243A18.134,18.134,0,0,0,803.269,640.442Z" transform="translate(-642.442 -627.606)" fill="#f9121b"/></g></g></svg>