<svg xmlns="http://www.w3.org/2000/svg" width="113.061" height="93.635" viewBox="0 0 113.061 93.635"><g transform="translate(0.227 -39)"><rect width="46.784" height="19.493" rx="9.747" transform="translate(23.015 108.809) rotate(-45)" fill="#afeaef"/><path d="M172.126,299.689l-19.3,19.3a9.753,9.753,0,0,1-15.922-3.216,9.748,9.748,0,0,0,15.726,11.014l19.3-19.3a9.749,9.749,0,0,0,2.138-10.566A9.724,9.724,0,0,1,172.126,299.689Z" transform="translate(-108.93 -211.078)" fill="#4abdcc"/><rect width="46.074" height="19.065" rx="9.533" transform="translate(0.571 113.57)" fill="#e5e5e5"/><path d="M62.987,433.747H35.7A9.747,9.747,0,0,1,25.949,424a9.747,9.747,0,0,0,7.8,15.595H61.037a9.747,9.747,0,0,0,9.747-9.747A9.733,9.733,0,0,1,62.987,433.747Z" transform="translate(-24.227 -307.193)" fill="#b7b7b7"/><path d="M33.747,408a9.747,9.747,0,1,0,0,19.493H47.392V408Z" transform="translate(-24.227 -295.091)" fill="#f44a2a"/><path d="M33.747,408a9.747,9.747,0,1,0,0,19.493H47.392V408Z" transform="translate(-24.227 -295.091)" fill="#f44a2a"/><path d="M35.7,433.747A9.747,9.747,0,0,1,25.949,424a9.747,9.747,0,0,0,7.8,15.595H47.392v-5.848Z" transform="translate(-24.227 -307.193)" fill="#ce3521"/><path d="M77.443,74.683A32.575,32.575,0,0,1,56,44.069V31.8L77.443,24l21.443,7.8V44.069A32.575,32.575,0,0,1,77.443,74.683Z" transform="translate(-44.672 15)" fill="#77d5d8"/><path d="M144,24V74.683a32.574,32.574,0,0,0,21.443-30.613V31.8Z" transform="translate(-111.229 15)" fill="#3b9daf"/><path d="M127.392,87.8h-7.8V80h-7.8v7.8H104v7.8h7.8v7.8h7.8v-7.8h7.8Z" transform="translate(-80.976 -27.355)" fill="#4abdcc"/><path d="M119.392,79.8h-7.8V72h-7.8v7.8H96v7.8h7.8v7.8h7.8v-7.8h7.8Z" transform="translate(-74.925 -21.304)" fill="#f44a2a"/><path d="M344,160h23.392v17.544H344Z" transform="translate(-266.254 -107.52)" fill="#f7b023"/><path d="M344,160v5.848h13.645v11.7h9.747V160Z" transform="translate(-266.254 -107.52)" fill="#f99321"/><rect width="46.074" height="61.962" rx="23.037" transform="translate(65.71 65.907)" fill="#f7ce23"/><path d="M335.191,216h-6.052v39.19a7.593,7.593,0,0,1-7.593,7.593H296v8a7.593,7.593,0,0,0,7.593,7.593h31.6a7.593,7.593,0,0,0,7.593-7.593V223.593A7.593,7.593,0,0,0,335.191,216Z" transform="translate(-229.95 -149.875)" fill="#f7b023"/><path d="M296,272h46.784v27.291H296Z" transform="translate(-229.95 -192.23)" fill="#066991"/><path d="M328,120h31.189v11.7H328Z" transform="translate(-254.152 -77.267)" fill="#f9e48c"/><g transform="translate(79.696 42.733)"><path d="M352,120h3.9v11.7H352Z" transform="translate(-352 -120)" fill="#f7ce23"/><path d="M384,120h3.9v11.7H384Z" transform="translate(-376.203 -120)" fill="#f7ce23"/><path d="M416,144h3.9v5.848H416Z" transform="translate(-400.405 -138.152)" fill="#f7ce23"/></g><path d="M210.745,274.855a9.747,9.747,0,0,0-13.784,0l-9.649,9.649L201.1,298.288l9.649-9.649A9.747,9.747,0,0,0,210.745,274.855Z" transform="translate(-147.745 -192.23)" fill="#1dbf5e"/><path d="M241.73,279.027a9.766,9.766,0,0,0-1.949-1.511,9.75,9.75,0,0,1-1.754,11.4l-9.747,9.747,3.8,3.8,9.649-9.649A9.747,9.747,0,0,0,241.73,279.027Z" transform="translate(-178.731 -196.402)" fill="#16994a"/><path d="M296,440.2a7.593,7.593,0,0,0,7.593,7.593h31.6a7.593,7.593,0,0,0,7.593-7.593V440H296Z" transform="translate(-229.95 -319.294)" fill="#f99321"/><path d="M296,272h33.139v27.291H296Z" transform="translate(-229.95 -192.23)" fill="#77d5d8"/><path d="M383.595,309.848h-5.848V304h-3.9v5.848H368v3.9h5.848v5.848h3.9v-5.848h5.848Z" transform="translate(-284.406 -216.433)" fill="#4abdcc"/><g transform="translate(5.337 83.143)"><path d="M375.595,301.848h-5.848V296h-3.9v5.848H360v3.9h5.848v5.848h3.9v-5.848h5.848Z" transform="translate(-283.692 -293.525)" fill="#fff"/><rect width="12.71" height="1.589" rx="0.794" transform="translate(20.654 39.96)" fill="#fff"/><rect width="7.944" height="1.589" rx="0.794" transform="translate(4.766 39.96)" fill="#fff"/><rect width="7.797" height="3.899" rx="1.949" transform="translate(46.267 9.198) rotate(-45)" fill="#fff"/><circle cx="2.383" cy="2.383" r="2.383" transform="translate(0 36.782)" fill="#fff"/><circle cx="1.949" cy="1.949" r="1.949" transform="translate(52.365)" fill="#fff"/></g></g></svg>